<?xml version="1.0" encoding="utf-8"?>
<!-- Generator: Adobe Illustrator 24.3.0, SVG Export Plug-In . SVG Version: 6.00 Build 0)  -->
<svg version="1.1" xmlns="http://www.w3.org/2000/svg" xmlns:xlink="http://www.w3.org/1999/xlink" x="0px" y="0px"
	 viewBox="0 0 2048 3072" style="enable-background:new 0 0 2048 3072;" xml:space="preserve">
<style type="text/css">
	.st0{fill:#00AEEF;}
	.st1{fill:url(#SVGID_1_);}
	.st2{fill:url(#SVGID_4_);}
	.st3{fill:#ED422B;}
	.st4{fill:#FFFFFF;}
	.st5{fill:#380805;}
	.st6{opacity:0.6;}
	.st7{opacity:0.8;fill-rule:evenodd;clip-rule:evenodd;fill:url(#SVGID_5_);}
	.st8{fill-rule:evenodd;clip-rule:evenodd;fill:#00AEEF;}
	.st9{fill:#00AEEF;fill-opacity:0.1265;}
	.st10{fill:#00AEEF;fill-opacity:0.1918;}
	.st11{fill:#00AEEF;fill-opacity:0.3471;}
	.st12{fill:#00AEEF;fill-opacity:0.1518;}
	.st13{fill:url(#SVGID_6_);}
	.st14{fill:url(#SVGID_7_);}
	.st15{fill:url(#SVGID_8_);}
	.st16{fill:url(#SVGID_9_);}
</style>
<g id="Layer_1">
	<rect class="st0" width="2048" height="3072"/>
	<linearGradient id="SVGID_1_" gradientUnits="userSpaceOnUse" x1="1024.0005" y1="2421.1838" x2="1024.0005" y2="79.7685">
		<stop  offset="0" style="stop-color:#072F47;stop-opacity:0"/>
		<stop  offset="0.0349" style="stop-color:#072F47;stop-opacity:0.0349"/>
		<stop  offset="1" style="stop-color:#072F47"/>
	</linearGradient>
	<rect class="st1" width="2048" height="2471.3"/>
</g>
<g id="Layer_5">
	<g>
		<defs>
			<rect id="SVGID_2_" y="210.65" width="2048" height="2000"/>
		</defs>
		<clipPath id="SVGID_3_">
			<use xlink:href="#SVGID_2_"  style="overflow:visible;"/>
		</clipPath>
	</g>
	<radialGradient id="SVGID_4_" cx="1238.0248" cy="1532.1272" r="1425.6373" gradientUnits="userSpaceOnUse">
		<stop  offset="0" style="stop-color:#000000"/>
		<stop  offset="1" style="stop-color:#000000;stop-opacity:0"/>
	</radialGradient>
	<polygon class="st2" points="2048,2407.96 0,2407.96 0,0 687.83,0 2048,0 	"/>
	<path class="st3" d="M922.32,1704.35c39.58-41.93,100.98-50.87,149.86-25.88l69.88-93.32l-161.18-25.08l137.03-34.19
		c-9.02-19.83-15.64-40.5-19.88-61.57L968.16,1292.3l125.99,84.22c6.59-59.12,31.71-116.66,75.69-163.24
		c82.68-87.59,207.85-110.87,313.14-68.21c-180.92-111.03-420.85-84.21-572.33,76.26c-161.93,171.53-165.58,435.16-16.21,610.79
		C879.9,1789.1,888.98,1739.67,922.32,1704.35"/>
	<path class="st3" d="M1643.16,1311.29c35.35,97.63,15.74,211.13-60.41,291.78c-43.92,46.53-99.86,74.92-158.43,84.93l91.86,121.64
		l-180.3-120.5c-20.88-2.98-41.5-8.27-61.45-15.93l-26.31,139.13l-34.33-159.47l-89.35,75.31c27.2,47.25,21.62,108.58-17.72,150.26
		c-31.77,33.65-77.58,46.06-119.7,36.74c182.67,123.92,433.38,100.71,589.79-64.98C1717.88,1700.77,1738.85,1481.44,1643.16,1311.29
		"/>
	<path class="st4" d="M1470.92,1766.91l-153.09-193.92l100.13-27.81l-103.26-17.46l195.86-261.53l-249.78,210.62l-23.37-102.08
		l-22.01,101.57l-202.4-141.67l153.06,193.95l-100.47,28.17l103.28,17.43l-195.88,261.49l249.82-210.59l23.35,102.11l22.34-101.92
		L1470.92,1766.91z M1241.6,1551.11l-0.02-0.69l0.72,0.68L1241.6,1551.11z"/>
	<path class="st4" d="M769.41,1431.25c-1.75-13.88-20.7-274.43-20.7-274.43s60.41-159.75,277.4-226.92
		c-181.48,68.16-208.46,247.02-208.46,247.02s178.58-261.34,551.73-113.42C936.61,960.81,761.54,1367.33,769.41,1431.25"/>
	<path class="st4" d="M1713.51,1401.81c8.06,11.43,147.34,232.44,147.34,232.44s21.83,169.39-138.07,330.73
		c128.09-145.51,67.77-316.04,67.77-316.04s-34.68,314.62-433.55,359.59C1787.23,1895.61,1750.53,1454.51,1713.51,1401.81"/>
	<polygon class="st5" points="664.98,2423.52 664.98,2107.55 853.6,1990.34 922.43,1796.6 1295.37,1550.98 1437.42,1337.36 
		1694.91,1166.76 1820.39,1228.99 2048,1166.76 2048,2423.52 	"/>
	<polyline class="st6" points="1799.5,2385.43 1575.11,2364.46 1615.65,2322.52 1698.84,2313.43 1682.76,2302.95 1630.33,2295.26 
		1559.03,2240.73 1703.03,2222.56 1941.62,2270.68 1801.65,2229.79 1724.58,2181.03 1531.07,2223.26 1557.87,1835.03 
		1701.75,1861.16 1809.51,1769.94 1593.98,1778.18 1552.04,1769.94 1691.56,1701.78 1809.51,1667.18 1823.96,1653.55 
		1780.62,1618.95 1798.1,1604.27 1780.62,1551.84 1833.05,1522.83 1849.83,1506.06 1798.1,1520.74 1739.73,1524.93 1744.97,1535.07 
		1771.19,1540.48 1755.46,1570.72 1760.7,1589.59 1691.56,1594.83 1616,1584.35 1603.07,1578.06 1658.53,1570.72 1671.11,1560.84 
		1658.53,1551.84 1671.11,1529.12 1598.53,1520.74 1582.1,1513.74 1624.04,1498.37 1631.03,1478.09 1679.96,1425.67 
		1658.53,1394.46 1652,1368.4 1603.07,1361.01 1603.07,1346.46 1593.98,1334.79 1492.74,1347.61 1732.66,1283 1712,1315.31 
		1658.53,1330.18 1712,1355.35 1671.11,1389.95 1722.33,1421.4 1809.51,1330.18 1798.1,1262.09 1705.83,1184.5 1825.36,1246.02 
		1862.41,1330.18 1862.41,1443.84 1975.65,1372.65 1947.34,1315.31 1985.09,1347.61 2039.61,1361.01 2012.35,1375.79 
		2025.98,1381.98 2019.17,1387.01 1970.93,1401.9 1966.21,1413.96 2012.35,1434.56 2048,1422.97 2048,2391.78 	"/>
	<polygon class="st6" points="1054.75,2372.9 889.06,2363.47 996.41,2341.45 1013.71,2327.29 1084.79,2305.28 1068.75,2295.84 
		1013.71,2295.84 807.68,2327.29 557.62,2314.71 790.38,2245.51 846.21,2256.52 977.54,2218.78 902.04,2196.76 790.38,2187.32 
		876.08,2177.89 949.23,2187.32 986.97,2168.45 968.1,2162.16 949.23,2151.15 986.97,2140.14 974.29,2125.8 876.08,2111.83 
		902.04,2103.97 1013.71,2092.96 1068.75,2103.97 1128.52,2004.89 1068.75,1982.87 936.65,1993.88 1112.79,1924.92 1112.79,1875.92 
		1024.72,1828.15 1084.79,1828.15 1092.35,1819.3 1068.75,1808.73 1128.52,1808.73 1182.97,1828.15 1226.99,1844.38 
		1402.82,1703.88 1356.49,1601.12 1392.66,1622.09 1453.48,1578.06 1482.84,1508.85 1470.25,1600.08 1423.07,1652.5 
		1455.68,1703.88 1392.66,1808.73 1274.49,2352.46 	"/>
</g>
<g id="Layer_7">
	<linearGradient id="SVGID_5_" gradientUnits="userSpaceOnUse" x1="1332.5005" y1="2439.6572" x2="1332.5005" y2="2177.7822">
		<stop  offset="0" style="stop-color:#FFFFFF"/>
		<stop  offset="0.0137" style="stop-color:#FFFAFA;stop-opacity:0.9563"/>
		<stop  offset="0.031" style="stop-color:#FDECEA;stop-opacity:0.9008"/>
		<stop  offset="0.0502" style="stop-color:#FBD5D0;stop-opacity:0.839"/>
		<stop  offset="0.0709" style="stop-color:#F8B5AC;stop-opacity:0.7727"/>
		<stop  offset="0.0928" style="stop-color:#F48B7D;stop-opacity:0.7026"/>
		<stop  offset="0.1153" style="stop-color:#EF5945;stop-opacity:0.6306"/>
		<stop  offset="0.1248" style="stop-color:#ED422B;stop-opacity:0.6"/>
		<stop  offset="0.2059" style="stop-color:#D54D3F;stop-opacity:0.5444"/>
		<stop  offset="0.6015" style="stop-color:#64819D;stop-opacity:0.2732"/>
		<stop  offset="0.8741" style="stop-color:#1CA1D8;stop-opacity:0.0863"/>
		<stop  offset="1" style="stop-color:#00AEEF;stop-opacity:0"/>
	</linearGradient>
	<rect x="617" y="2171.26" class="st7" width="1431" height="261.88"/>
	<rect x="617" y="2420.55" class="st8" width="1431" height="65.35"/>
</g>
<g id="Layer_2">
	<polygon class="st0" points="1608.66,2473.92 1453.48,2473.92 1453.48,1777.69 1608.66,1830.12 	"/>
	<polygon class="st0" points="1095.49,2473.92 1453.48,2473.92 1453.48,1777.69 1130,1827.59 1095.49,1869.96 	"/>
	<polygon class="st0" points="599.97,2473.92 664.98,2473.92 664.98,1461.09 599.97,1375.93 	"/>
	<polygon class="st0" points="319.75,2473.92 599.97,2473.92 599.97,1375.93 319.75,1347.61 	"/>
	<polygon class="st0" points="181.32,2473.92 319.75,2473.92 319.75,1347.61 181.32,1388.74 	"/>
	<polygon class="st0" points="132.32,2471.3 181.33,2471.3 181.33,1388.74 132.32,1473.15 	"/>
	<g>
		<path id="path3609_1_" class="st0" d="M923.06,2252c-8.85,12.02-19.08,18.49-24.46,32.06c-4.35,10.99-4.87,23.58-3.65,35.38
			c0.34,3.3,2.22,11.96,3.66,15.46c-0.09-1.72,15.65-10.18,17.38-10.68c-0.5-4.39-3.34-15.56-5.83-22.96
			C909.92,2283.8,917.14,2272.16,923.06,2252L923.06,2252z"/>
		<path id="path3567_1_" class="st0" d="M857.45,2493.03c-5.77,2.86-8.72,4.09-16.41,6.21c3.6-9.62,6.06-18.75,8.37-28.26
			c5.3-21.75,14.5-45.91,25.46-66.92c12.02-23.03,24.78-44.7,36.92-66.48c7.65-13.72,10.84-30.49,13.62-46.16
			c1.09-6.15-0.09-13.38-1.98-19.31c-0.97-3.05-4.41-5.07-6.61-7.61c1.53-2.83,3.06-5.66,4.59-8.5c4.91,0.34,9.82,0.67,14.73,1.01
			c-1.28,7.3-2.99,14.52-3.85,21.89c-0.52,4.44,1.05,9.09,0.17,13.42c-2.49,12.22-4.6,25.08-9.35,36.58
			c-5.49,13.3-13.54,25.38-19.86,38.13c-3.69,7.43-7.27,14.74-11.11,22.08c-8.1,15.47-15.33,30.57-21.94,46.23
			C862.23,2454.24,856.44,2474.76,857.45,2493.03z"/>
		<path id="path6857_1_" class="st0" d="M860.57,2436.79c0.89-1.17,7.21,1.28,6.95,3.06c-1.52,4.1-3.03,8.21-4.55,12.32
			c0.32-1.78-5.99-4.11-6.94-2.19C857.55,2445.58,859.06,2441.18,860.57,2436.79z"/>
		<path id="path3195_1_" class="st0" d="M881.55,2392.1c1-2.06,7.7,0.98,6.54,3.91c-1.46,3.27-3.24,6.57-4.9,9.73
			c0.64-2.07-5.06-6.28-6.5-4.44C878.46,2398.12,879.78,2395.27,881.55,2392.1z"/>
		<path id="path2287_1_" class="st0" d="M875,2422.93c0.61-1.83-6.26-5.56-7.06-3.85c-2.27,5.25-4.65,10.55-6.82,15.76
			c0.63-1.21,7.62,1.8,7.17,3.46C870.49,2433.12,873.37,2428.2,875,2422.93z"/>
		<path id="path4085_1_" class="st0" d="M882.65,2390.46c1.19-1.78,7.16,2.13,6.53,3.47c1.52-2.28,3.45-6.02,4.97-9.34
			c0.69-1.57-5.47-5.11-6.2-3.98C886.15,2383.82,884.35,2387.02,882.65,2390.46z"/>
		<path id="path4087_1_" class="st0" d="M889.05,2378.73c1.04-0.8,6.13,2.42,5.85,3.93c1.46-3.2,3.17-5.97,4.64-9.17
			c0.19-1.13-5.08-4.03-5.88-3.06C892.11,2373.24,890.6,2375.93,889.05,2378.73z"/>
		<path id="path4089_1_" class="st0" d="M900.74,2371.15c0.25-0.92-4.95-3.62-5.72-2.95c1.34-2.65,2.95-5.23,4.29-7.88
			c0.96-1.05,5.79,1.73,5.79,2.43C903.76,2365.63,902.11,2368.35,900.74,2371.15z"/>
		<path id="path5972_1_" class="st0" d="M921.59,2266.4c2.29,5.51,4.63,14.52,4.47,20.87c-0.09,3.42-3.88,22.82-6.25,30.77
			l14.21-29.65l-4.13-28.21L921.59,2266.4L921.59,2266.4z"/>
		<path id="path2870_1_" class="st0" d="M924.07,2235.12l13.7-0.88l5.17,12.18l1.25,16.21l-8.61,10.5
			c-4.42-6.21-11.2-2.91-15.2-8.48l-4.42-9.69l-7.84-8.61l2.9-5.6L924.07,2235.12z"/>
		<path id="path3587_1_" class="st0" d="M939.59,2239.85c8.62-1.32,17.28-2.41,25.85-3.94c15.56-2.79,30.12-2.98,41.37,0.54
			c8.34,2.61,20.29,9.18,21.94,10.84c1.55,2.72,1.7,5.71,3.12,8.36c-1.7-2.28-69.63-4.84-70.4-2.04c-1.23-2.45-6.14-8.01-8.67-9.42
			c-3.08-0.37-10.53-2.27-11.99-2.86L939.59,2239.85L939.59,2239.85z"/>
		<path id="path3611_1_" class="st0" d="M928.11,2238.1c-0.46-3.36,1.29-6.27,0.66-9.8c-0.75,0.27-1.5,0.55-2.25,0.82
			c-0.48-2.33-23.22-18.24-25.46-20.77c-3.54,0.35-16.09,10.11-17.86,15.61c1.65-0.53,25.61,15.52,28.47,15.35
			c1.76,2.13,4.01,1.69,5.58,3.88c2.9-0.07,3.65-4.25,5.93-3.98l3.52,4.63l4.48-2.77L928.11,2238.1z"/>
		<path id="path3613_1_" class="st0" d="M929.32,2241.19c0.92-4.21,6.98-8.69,7.91-12.89c2.29-0.15,6.13-3.49,7.12-2.03
			c0.99-2.3,3.77-3.86,4.68-5.52c0,0-0.47-3.22,2.09-2.87c2.45-2.45,7.42-15.01,9.79-15.55c-0.36-2.43,2.52-6.74,3.71-7.66
			c-0.53-1.07-1.03-2.04-1.85-3.16c-0.9-0.32-18.47,3.76-21.75,9c0.36,1.24-4.41,5.27-5.01,6.61c1.27,1.06,0.45,1.33-0.4,1.17
			c-2.87,3.78-6.7,16.89-9.57,20.67c0.21,3.64-0.45,4.24-0.24,7.88L929.32,2241.19z"/>
		<path id="path3615_1_" class="st0" d="M928.83,2241.03c-11.65-0.61-22.65-2.88-34.36-3.02c-10.85-0.13-22.72,1.13-32.93,3.86
			c-10.04,2.68-23.68,14.53-26.82,18.42c-3.2,3.96-6.23,8.62-8.11,13.2c3.62-0.79,7.42-1.08,10.85-2.36
			c3.8-4.55,29.95-17.38,31.82-16.6c2.06-1.08,5.28-1.12,7.38-2.46c0.68,1.12,0.76,2.62,0.65,3.86c8.8-5.42,18.13-9.38,27.77-12.16
			C912.6,2241.58,920.91,2241.94,928.83,2241.03L928.83,2241.03z"/>
		<path id="path3601_1_" class="st0" d="M927.2,2243.44c-6.32-0.66-12.66-1.59-18.96-1.97c-6.8-0.41-12.62,0.44-20.16,3.04
			c-10.55,3.63-17.08,12.62-20.63,22.11c-2.25,6-2.03,14.87-0.63,19.98c1.16-2.62,14.67-11.56,16.21-10
			c-0.51-2.77,42.02-31.01,44.34-31.63C927.32,2244.46,927.26,2243.95,927.2,2243.44L927.2,2243.44z"/>
		<path id="path3591_1_" class="st0" d="M928.4,2239.1c5.9-7.45,16.81-20.85,27.53-25.12c11.4-4.54,24.43-4.72,29.43-3.35
			c-2.21,0.67-3.19,6.42-5.06,6.03c1.06,1.49,2.94,1.96,4.01,3.69c-2.12,0.05-2.9,1.22-5.2,1.41c1.38,1.72,3.61,2.73,4.85,4.67
			c-1.99-0.32-3.67,0.53-5.56,0.09c0.69,1.84-3.79,6.18-4.12,8.42c-2.12-2.18-4.08-3.21-5.84-5.27c0.2,1.61-0.74,3-0.63,4.58
			c-1.07-2.16-2.75,1.29-2.2,4.82c-1.14-2.59-2.98-2.46-2.99,0.29c-1.99-2.76-4.33-2.5-4.16,0.39c-0.71-1.94-5.25-4.15-5.02,0.7
			c-0.77-3.53-20.65-1.68-22.28-1.06L928.4,2239.1z"/>
		<path id="path3593_1_" class="st0" d="M1003.17,2216.69c-3.19-0.51-15.56-1.13-25.93,0.12c-5.72,0.69-17.82,4.37-22.95,6.84
			c-8.58,4.13-15.73,8.9-23.9,13.91l6.94,1.5c6.68-1.64,14.21,1.39,21.14,0.67c4.84-0.51,9.11-4.43,14.18-4.36
			c0.29-2.36,26.01-12.05,27.68-12.01C1001.71,2221.44,1001.54,2219.62,1003.17,2216.69L1003.17,2216.69z"/>
		<path id="path3589_1_" class="st0" d="M948.86,2248.07c13.01,5.4,20.68,8.07,33.2,14.46c5.5,2.81,20.91,12.87,25.38,17.31
			c6.75,6.71,10.62,11.31,14.92,19.19c0.66,2.13,0.9,4.29,0.73,6.5c-0.56-1.03-45.34-26.56-46.18-25.99
			c-0.53-1.1-1.06-2.19-1.59-3.29c-1,0.8-2,1.59-3,2.38c-0.3-1.93-0.6-3.86-0.9-5.79c-0.83,1.11-0.96,2.16-1.13,3.31
			c-1.29-1.36-2.57-2.71-3.86-4.07c-0.39,0.41-0.79,0.82-1.18,1.23c-0.74-1.67-1.17-3.42-2.24-4.17
			c-1.62-3.51-10.66-14.56-13.86-17.08L948.86,2248.07z"/>
		<path id="path3597_1_" class="st0" d="M932.14,2244.02c5.52,11.02,11.45,17.16,20.33,26.07c6.81,6.84,15.31,16.24,21.24,26.06
			c4.07,6.74-1.87,34.92-2.24,37.88c-1.41-3.91-19.96-22.17-19.91-26.43c-1.51,0.69-2.85,0.18-4.28,0.27
			c-0.14-1.93-0.88-3.63-1.09-5.88c-0.96,0.78-1.91,1.55-2.87,2.33c-0.74-2.79-1.71-5.49-2.21-8.37c-1.35-1.39-2.7-2.77-4.05-4.16
			c-0.58-4.54-3.05-9.41-4.02-14.15c1.98-3.43,1.97-20.97-3.29-31.63C930.54,2245.35,931.34,2244.68,932.14,2244.02z"/>
		<path id="path3145_1_" class="st9" d="M934.27,2267.59c1.38,4.88,2.91,9.87,6.18,14.32c-0.17,2.92-0.33,4.25-0.07,7.23
			c1.74,1.39,3.4,3.48,5.21,5.5c1.38,2.94,3.24,6.93,6.51,8.99c-0.22,1.9-0.24,3.6-0.46,5.5c-0.05-0.58-0.06-1-0.06-1.57
			c-0.72,0.44-3.31,0.57-4.34-0.12l-12.16-16.81C934.82,2282.95,934.35,2275.28,934.27,2267.59z"/>
		<path id="path3874_1_" class="st0" d="M934.16,2253.04c2.88,6.24,4.25,13.6,7.51,19.63c6.03,11.14,12.83,21.89,19.25,32.84
			c-6.2-11.08-12.55-22.08-18.59-33.25C939.08,2266.25,937.25,2259.14,934.16,2253.04z"/>
		<path id="path2402_1_" class="st0" d="M937.48,2253.05c0.53,2.31,0.76,4.28,1.07,6.61c0.76-0.45,1.51-0.9,2.27-1.35
			c0.34,1.97,0.65,3.96,0.71,6.03c0.55-0.84,1.1-1.68,1.64-2.52c0.48,1.9,0.86,3.7,1.09,5.72c0.47-0.34,0.94-0.69,1.4-1.03
			c0.22,1.11-0.27,2.79-0.3,3.87c0.38-0.02,0.7-0.37,1.08-0.39c0.74,1.98,1.3,4.51,2.55,6.32c1.77,0.53,2.02,0.79,4.01,2.11
			c0.22,2.94,1.27,6.76,1.8,9.4c1.7,0.39,1.89,1.01,3.59,1.4c0.43,3.27,2.98,7.65,3.18,11.08c1.19,0.16,3.54,1.08,4.55,0.09
			c0.88,0.23,2.24,0.97,2.86,1.23c-0.09,2.83,11.82,9,12.13,4.76c-7.09-10.99-14.18-21.98-21.27-32.97
			c-4.63-3.15-9.07-6.49-13.7-9.64l-1.8-1.84l-0.68-9.72l-5.98-6.04l-3.94-2.39l0.06,3.31l1.59,2.69c0,2.1,0.25,4.78-0.02,6.85
			C936.13,2255.29,936.84,2254.64,937.48,2253.05L937.48,2253.05z"/>
		<path id="path3595_1_" class="st0" d="M938.52,2245.23c11.89,13.37,29.87,20.67,42.92,33.13c-1.48,0.08-1.52,0.77-2.27,1.15
			c4.12,2.47,18.49,20.73,18.06,21.42c1.19,3.62,4.12,11.32,3.17,10.43c-0.35,2.84-7.38,13.25-8.5,13.48
			c-0.44-1.26-19.07-20.01-18.95-24.08c-1.43-0.55-2.59-1.6-4.28-1.66c-1.64,1.54-3.3,0.34-4.94,0.51c0.06-2.95-1.31-4.89-1.96-7.33
			c-1.65-0.23-3.32-1.26-4.98-1.89c-1.3-3.84,0.08-10.76-1.33-13.84c-1.97-0.38-2.62-2.05-5.91-2.35
			c-2.01-3.34-3.17-7.23-3.36-12.46c-0.22-6.12-6.44-10.53-9.66-15.79L938.52,2245.23z"/>
		<path id="path3139_1_" class="st0" d="M947.67,2257.22c7.86,8.01,15.96,15.35,23.32,23.82c6.1,7.02,11.45,15.17,17.05,22.65
			c-5.79-7.37-11.23-15.04-17.36-22.1C963.35,2273.16,955.34,2265.35,947.67,2257.22L947.67,2257.22z"/>
		<path id="path3141_1_" class="st10" d="M954.05,2255.59l10.72,11.56l-2.5-1.88l1.47,3.75l-3.76-2.48l0.75,5.06l-2.59-2.64
			l-1.33,3.11l-5.89-7.29l-0.63,2.59l-2.34-2.42l-1.29,0.69l-1.15-10.94L954.05,2255.59z"/>
		<path id="path3573_1_" class="st0" d="M933.2,2238.52l0.15,3.13c0.41,0.31,0.81,0.61,1.22,0.92c0.53,3.98-0.39,8.49-0.59,12.73
			c0.52-3.6,1.04-7.21,1.55-10.81c0.94,4.84,0.22,9.33,0.34,13.99c0.54-3,1.66-5.66,1.61-9.01c1.54,5.67,1.91,11.44,2.86,17.17
			c0.63-3.29,1.93-6.01,2.89-9.02c-0.25,4.73,0.93,8.46,0.4,13.06c1.03-2.85,3.06-1.71,2.96,2.11c0.56-3.9,0.95-7.83,0.74-12.33
			c0.91,4.52,2.09,8.95,2.74,13.57c0.17-4.52-0.35-9.28-0.52-13.92c0.76,5.26,1.75,10.36,3.06,15.5c-0.4-4.65-0.46-8.79-0.29-13.32
			c0.99,4.79,2.83,9.44,4.25,14.16c-0.27-3.24-0.54-6.48-0.8-9.72c1.47,3.41,2.58,7.03,4.43,10.22c-0.81-3.29-0.72-6.02-1.1-9.39
			c1.43,2.6,2.97,4.92,4.91,7.09c-1.11-2.79-1.9-5.53-2.44-8.44c1.1,1.97,2.65,3.13,3.98,4.7c-1.38-2.08-2.31-4.16-4.15-6.23
			c2.01,0.69,3.27,2.15,4.9,3.22c-0.14-1.44-0.66-3.87-0.9-5.59c-1.51-1.5-2.57-2.6-4.54-4.49c1.52,0.96,3.01,2.26,4.55,2.89
			c-1.92-2.72-3.45-5.41-5.75-8.15c2.18,0.63,4.09,2.48,6.29,2.94c-2.22-2.63-4.28-4.44-6.97-6.33c1.75,0.67,3.5,0.95,5.24,0.82
			c-1.77-1.48-3.75-2.73-6.22-3.88c2.22,0.56,4.43,1.12,6.65,1.67c-2.02-1.5-3.13-2.44-5.27-3.09c1.8,0.03,3.59,0.06,5.39,0.09
			c-4.43-2.43-10.97-5.88-18.14-7.3C943.26,2236.82,936.53,2237.9,933.2,2238.52z"/>
		<path id="path3585_1_" class="st0" d="M905.09,2309.19"/>
		<path id="path4081_1_" class="st11" d="M896.07,2379.51c7.35-14.69,15.21-30.49,22.84-43.6c5.5-9.45,8.23-21.11,11.03-32.16
			c-3.98,11.08-6.95,21.56-12.32,31.27c-8.65,15.64-19.91,34.52-28.76,52.12 M888.86,2387.15c-8.48,16.86-17.76,34.05-24.25,51.87
			c-6.2,17.03-10.02,33.59-9.53,52.17c0.5-21.11,7.33-38.3,14.61-56.84c7.44-18.93,17.32-36.72,26.38-54.84"/>
		<path id="path3599_1_" class="st0" d="M929.66,2256.77c-0.1,15.77-4.74,38.64-4.03,54.4c0.43,9.37,2.48,18.73,4.93,27.89
			c1.25,0.88,16.13,15.26,17.72,15.91c-0.53-1.87,5.46-22.16,7-22.34c-1.33-1.74-4.22-26.41-3.79-29.04
			c-3.28-1.94-4.93-5.61-6.31-8.97c-1.51-1.7-3.24-3.79-5.3-5.04c-0.47-2.91-0.05-4.64-0.02-7.47c-3.4-5.42-8.06-17.4-8.4-25.18
			L929.66,2256.77L929.66,2256.77z"/>
		<path id="path3143_1_" class="st0" d="M930.15,2264.72c-1.44,10-2.95,20.33-2.5,30.45c0.55,12.43,2.89,24.82,5.47,37.18
			c-2.27-12.64-4.36-25.04-4.91-37.51C927.78,2284.76,929.2,2274.87,930.15,2264.72z"/>
		<path id="path10359_1_" class="st12" d="M929.77,2258.71c-0.26,7.24-1.22,14.53-1.89,21.37c-0.56,5.75-1.22,11.57-1.77,17.3
			c0.7-0.37,1.3-0.92,1.81-1.76c0.93,1.47,1.74,2.63,3.22,3.36c1.2-1.71,2.31-2.95,2.48-5.44c0.16-2.37-2.56-6.73-3.57-10.28
			c1.29-1.3,1.85-2.16,2.14-4c-0.9-1.68-1.55-3.58-2.03-5.47c0.95-2.32,2-4.07,3.42-5.9c-1.13-3.58-1.92-7.22-2.25-10.91
			L929.77,2258.71z"/>
		<path id="path3603_1_" class="st0" d="M925.36,2246.39c-6.28,1.99-18.25,5.3-23.81,8.63c-14.39,8.61-21.07,14.46-30.81,27.97
			c-4.56,6.32-1.9,36.49-0.22,38.23c0.34-3.69,0.68-7.38,1.02-11.07c0.83,3.04,1.9,5.61,3.49,7.83c-0.27-7.26,1.03-13.64-0.81-21.78
			c1.61,4.13,2.99,5.28,4.77,7.82c0.34-2.24,0.09-4.89-0.62-7.06c1.92-0.92,3.32-2.26,4.9-4.97c1.03,0.78,2.29,1.16,3.56,1.44
			c0.28-3.29,1.26-6.62,2.4-9.75c1.27,1.25,2.03,2.35,2.95,3.71c0.27-2.23,0.54-4.45,0.82-6.67c1.39-0.28,2.78-0.56,4.17-0.84
			c-0.74-2.08-1.49-4.16-2.23-6.25c2.08,1.11,4.01,1.56,6.12,1.41c0.5-3.43,1.62-7.25,3.07-10.22c1.09,0.59,2.17,1.18,3.26,1.77
			c-0.23-3.05,2.04-8.53,4.58-7.92c1.94-1.8,9.46-8.23,12.87-10.32L925.36,2246.39L925.36,2246.39z"/>
		<path id="path3607_1_" class="st0" d="M923.4,2252.19c-10.54,12.26-24.52,26.09-33.96,39.15c-4.03,5.58-6.23,12.58-8.78,19.13
			c-1.79,4.59-2.84,9.53-4.25,14.29c1.69,0.94,6.76,0.05,8.01,0c0.15-1.18,10.81-6.06,11.65-7.1c-0.89-2.61,0.2-8.03,2.08-9.12
			c0.13-1.81-1.68-7.16-2.65-9.39c1.33,1.36,2.38,2.76,3.26,4.5c3.18-6.1,4.37-10.5,4.47-14.83c1.45-1.79,2.81-2.26,4.78-3.1
			C911.39,2275.46,916.9,2263.35,923.4,2252.19L923.4,2252.19z"/>
		<path id="path3605_1_" class="st0" d="M922.41,2248.15c-9.45,5.94-19.1,12.02-27.18,19.69c-8.15,7.73-16.07,16.64-21.52,26.5
			c-3.95,7.14-4.28,27.73-3.08,29.34c1.3-0.57,6.43-3.63,8.04-4.07c0.45-3.84,8.54-24.5,9.5-24.4
			c9.25-16.06,24.24-27.66,38.39-41.52C926.4,2252.91,922.57,2248.92,922.41,2248.15z"/>
		<path id="path3583_1_" class="st0" d="M926.05,2244.32c-1.69,1.97-4.05,5.6-5.07,8.76c-2.17,6.73-4.01,16.15-3.3,24.01
			c0.74,8.23,1.75,13.5,4.02,21.51c1.27-2.49,6.71-7.91,5.84-10.11c-0.93-2.35-1.7-9.2-1.14-11c-1.04-1.32-1.43-8.31,0.14-9.79
			c0-1.21-0.01-2.42-0.02-3.64c-0.43-1.58-1.39-2.96-2.08-4.44c0.97,1.33,1.92,2.59,2.92,3.98c1.87-2.15,3.91-4.28,3.86-5.72
			c0.87,0.21,3.5-0.29,4.37-0.08c-1.15-3.03-5.48-7.23-6.96-12.08L926.05,2244.32z"/>
		<path id="path4083_1_" class="st0" d="M845.34,2488.68c4.93-20.19,11.34-41.17,18.96-60.8c5.56-14.32,32.58-63.45,41.01-77.27
			c-7.46,14.41-34.44,64.89-40.23,79.8C857.7,2449.44,851.35,2468.81,845.34,2488.68z"/>
		<path id="path3205_1_" class="st0" d="M923.41,2236.77c-7.26-7.02-15.19-13.77-23.95-19.35c4.94,4.2,9.17,7,13.78,11.19
			C916.08,2231.18,920.25,2234.63,923.41,2236.77z"/>
		<path id="path4090_1_" class="st0" d="M927.33,2237.27c2.94-6.14,5.49-12.53,8.82-18.42c3.23-5.71,7.24-10.91,10.85-16.36
			c-3.32,5.37-6.85,10.61-9.96,16.12C933.6,2224.7,930.57,2231.05,927.33,2237.27z"/>
		<path id="path3804_1_" class="st0" d="M938.98,2241.85c2.03,1.41,4.34,2.52,6.1,4.24c1.88,1.84,3.22,4.3,4.82,6.46
			c-1.56-2.46-2.7-5.43-4.69-7.38C943.56,2243.56,941.06,2242.96,938.98,2241.85z"/>
		<path id="path3814_1_" class="st0" d="M929.87,2243.77l1.92-1.4l3.18-0.28l-2.59-1.15l-1.44-1.58l-0.92,2.26L929.87,2243.77z"/>
		<path id="path3816_1_" class="st0" d="M929.13,2244.39l-0.86,2.41l1.64,1.67l-2.96,1.25l-1.72-3.57L929.13,2244.39z"/>
		<path id="path3818_1_" class="st0" d="M931.23,2245.55l2.48,3.82l-1.33-0.04l0.29,1.99l-2.72,1.87l0.04-3.69L931.23,2245.55
			L931.23,2245.55z"/>
		<path id="path3820_1_" class="st0" d="M932.19,2243.8l2.4-2.27l-0.01,1.23l1.99-0.38l1.7,1.83l-2.24-1.11l0.78,1.99l-2.04-1.01
			L932.19,2243.8z"/>
		<path id="path3301_1_" class="st0" d="M929.64,2242.29l0.6-4.42l1.53-3.52l-1.27-0.28l-1.45-3.42l0.65-1.6l-2.54-2.04l-1.82,4.86
			l-1.02,0.37l-0.59,2.94l2.47,3.05l2.39,4.32L929.64,2242.29z"/>
		<path id="path3303_1_" class="st0" d="M929.03,2243.13l-0.32-4.08l-2.13-2.19l-1.06,1.74l2.02,1.61l0.83,3.9L929.03,2243.13z"/>
		<path id="path3822_1_" class="st0" d="M930.42,2243.92l-4.04-1.5l-1.41-1.93l3.1,0.79l1.03-0.72L930.42,2243.92z"/>
		<path id="path3824_1_" class="st0" d="M931.53,2244.22l1.98,0.85l0.36,3.01l-2.76-0.74l-1.14-2.91L931.53,2244.22z"/>
		<path id="path3305_1_" class="st0" d="M927.43,2244.08l-2.76-1.71l-1.83,0.67l-0.7-0.61l-1.76,1.75l2.19,1.43l5.84-0.52
			L927.43,2244.08z"/>
		<path id="path5087_1_" class="st0" d="M929.45,2243.6l-1.65,0.23l0.58,1.77l0.94,1.51l0.67-1.85l0.52-0.44L929.45,2243.6z"/>
	</g>
	<g>
		<rect id="svg_106_1_" x="1938.42" y="2517.61" class="st0" width="0" height="1.8"/>
		<g id="svg_107_1_" transform="rotate(57.882 526 129)">
			<path id="svg_108_1_" class="st0" d="M3005.23,164.67c11.42,6.62,17.74,15.25,30.48,18.44c10.31,2.58,21.98,1.38,32.84-1.32
				c3.04-0.75,10.98-3.65,14.18-5.45c-1.59,0.31-5.08-12.67-8-10.99c-1.32-1.16-16.74,1.45-23.5,4.74
				C3035.07,172.64,3024.06,167.49,3005.23,164.67L3005.23,164.67L3005.23,164.67z"/>
			<path id="svg_109_1_" class="st0" d="M3230.35,193.49c2.84,4.97,4.08,7.55,6.29,14.41c-9.02-2.07-17.54-3.13-26.41-4.01
				c-20.29-2.02-42.95-7.36-62.74-14.73c-21.71-8.09-42.17-17.06-62.73-25.43c-12.95-5.27-28.56-6-43.15-6.5
				c-5.72-0.2-12.37,1.87-17.79,4.41c-2.78,1.31-4.54,4.77-6.81,7.15c-2.67-1.04-5.34-2.09-8.02-3.13c0.15-4.6,0.29-9.21,0.44-13.81
				c6.79,0.22,13.53,0.85,20.37,0.66c4.12-0.11,8.37-2.19,12.41-1.94c11.38,0.68,23.35,0.93,34.14,3.8
				c12.48,3.33,23.93,9.19,35.94,13.37c7,2.43,13.88,4.78,20.8,7.37c14.58,5.46,28.78,10.16,43.49,14.22
				C3194.31,194.22,3213.48,196.87,3230.35,193.49z"/>
			<path id="svg_110_1_" class="st0" d="M3178.23,198.08c-1.11-0.67,0.94-6.86,2.6-6.86c3.85,0.86,7.7,1.73,11.54,2.58
				c-1.65-0.06-3.6,6.11-1.79,6.73C3186.46,199.72,3182.34,198.9,3178.23,198.08z"/>
			<path id="svg_111_1_" class="st0" d="M3136.19,184.55c-1.93-0.66,0.65-7.28,3.39-6.59c3.08,0.92,6.18,2.13,9.17,3.25
				c-1.93-0.32-5.64,5.53-3.89,6.63C3141.86,186.63,3139.19,185.77,3136.19,184.55z"/>
			<path id="svg_112_1_" class="st0" d="M3164.93,186.53c-1.71-0.33-4.94,6.55-3.33,7.06c4.94,1.41,9.91,2.91,14.81,4.23
				c-1.14-0.42,1.41-7.32,2.95-7.12C3174.5,189.36,3169.85,187.35,3164.93,186.53z"/>
			<path id="svg_113_1_" class="st0" d="M3134.64,183.76c-1.68-0.87,1.73-6.93,2.99-6.52c-2.16-1.11-5.68-2.4-8.81-3.37
				c-1.48-0.43-4.54,5.76-3.47,6.28C3128.38,181.38,3131.41,182.63,3134.64,183.76z"/>
			<path id="svg_114_1_" class="st0" d="M3123.58,179.37c-0.78-0.86,2.03-6.01,3.43-5.96c-3.01-0.93-5.63-2.15-8.64-3.08
				c-1.05-0.02-3.56,5.26-2.63,5.86C3118.39,177.27,3120.94,178.31,3123.58,179.37z"/>
			<path id="svg_115_1_" class="st0" d="M3116.17,169.53c-0.86-0.11-3.18,5.08-2.53,5.7c-2.5-0.89-4.93-2.04-7.43-2.93
				c-1-0.75,1.41-5.61,2.05-5.7C3110.96,167.46,3113.54,168.63,3116.17,169.53z"/>
			<path id="svg_116_1_" class="st0" d="M3018.59,164.11c5.02-2.86,13.27-6.23,19.16-6.93c3.17-0.37,21.24,0.56,28.66,1.71
				l-27.89-9.24l-25.95,7.59L3018.59,164.11L3018.59,164.11z"/>
			<path id="svg_117_1_" class="st0" d="M2989.58,165.98l-1.27-12.6l11.09-6.42l14.95-3.32l10,6.6c-5.59,4.93-2.31,10.78-7.33,15.24
				l-8.81,5.4l-7.7,8.43l-5.28-1.95L2989.58,165.98z"/>
			<path id="svg_118_1_" class="st0" d="M2993.43,150.94c-1.51-7.82-2.81-15.72-4.52-23.47c-3.1-14.08-3.77-27.56-0.89-38.48
				c2.14-8.09,7.81-20.06,9.29-21.82c2.46-1.8,8.5,3.68,8.5,3.68c-3.01,2.73-3.01,57.6-0.39,57.94c-2.23,1.47-7.2,6.77-8.42,9.31
				c-0.23,2.9-1.74,10.07-2.25,11.52L2993.43,150.94L2993.43,150.94z"/>
			<path id="svg_119_1_" class="st0" d="M2992.2,161.83c-3.09,0.87-24.34,26.66-26.61,29.07c0.45,3.24,9.89,13.59,15.04,14.51
				c-0.54-1.46,10.23-19.35,11.88-20.04c0.45-2.81,1.61-5.81,1.36-8.44c1.91-1.92,1.43-3.95,3.4-5.7c-0.16-2.68-4.05-2.83-3.88-4.98
				l4.17-3.89l-2.71-3.79L2992.2,161.83z"/>
			<path id="svg_120_1_" class="st0" d="M2995.02,160.3c-3.92-0.3-8.27-5.33-12.19-5.62c-0.22-2.11-3.43-5.23-2.11-6.35
				c-2.16-0.62-3.7-2.98-5.27-3.61c0,0-2.97,0.87-2.72-1.56c-2.35-1.95-21.03-8.46-21.92-9.45c-0.97,0.64-1.85,1.23-2.86,2.14
				c-0.27,0.88,4.1,16.65,9.05,19c1.13-0.5,23.22,7.96,26.81,10.13c3.36-0.68,3.94-0.15,7.3-0.83L2995.02,160.3z"/>
			<path id="svg_121_1_" class="st0" d="M2994.88,160.77c-0.17,10.9-1.9,21.42-1.63,32.3c0.25,10.09,1.81,20.95,4.67,30.06
				c2.82,8.96,14.23,20.05,17.94,22.45c3.77,2.44,8.18,4.64,12.48,5.77c-0.85-3.25-1.25-6.75-2.55-9.76
				c-4.33-2.93-24.68-50.56-27.58-59.14C2995.94,175.76,2995.99,168,2994.88,160.77L2994.88,160.77z"/>
			<path id="svg_122_1_" class="st0" d="M2997.17,161.96c-0.39,5.96-1.04,11.97-1.18,17.87c-0.15,6.37,0.83,11.65,3.49,18.32
				c3.71,9.31,12.25,14.17,21.14,16.21c5.63,1.28,13.83-0.09,18.5-2.08c-2.46-0.72-11.19-12.08-9.79-13.71
				c-2.55,0.84-5.06-0.89-3.78-2.6c-3.47,0.94-6.26-1.76-3.69-3.46c-4.06-1.22-9.33-2.13-7.47-3.43c-1.3-1.74-2.6-2.75-5.02-3.96
				c0.23-0.87,0.46-1.74,0.69-2.6c-1.72-1.2-4.3-4.43-4.12-7.03c-0.73-1.21-1.11-2.01-1.88-2.64c-1.64,1.57-2.02,1.23-3.78,2.58
				c1.24-2.61,1.54-2.08,1.74-4.24c-0.65-2.08-2.79-7.5-3.44-9.57C2998.11,161.72,2997.64,161.84,2997.17,161.96L2997.17,161.96z"/>
			<path id="svg_123_1_" class="st0" d="M2993.11,161.43c-7.09-4.49-19.85-12.83-24.16-22.21c-4.58-9.98-5.19-22.06-4.09-26.88
				c0.69,1.96,7.46,0.91,9.02-0.32c0.12,1.96,3.89,0.92,5.64-0.49c-0.23,1.89,0.62,3.34,0.27,5.15c1.68-0.89,5.1,6.92,3.25,8.83
				c1.49-0.4,0.93,3.58-0.92,4.94c3.42-0.93,5.12-0.47,3.01,1.51c2.41-1.21,4.02,3.3,2.25,4.22c1.41-0.15,2.92,8.68,2.21,10.12
				c0.09,0.95,3.07,11.1,3.7,12.53L2993.11,161.43z"/>
			<path id="svg_124_1_" class="st0" d="M2969.88,94.99c-0.36,3.03-0.52,14.6,0.99,24.06c0.83,5.22,4.65,15.97,7.1,20.4
				c4.11,7.42,8.76,13.42,13.67,20.34l1.15-6.64c-1.74-5.99-2.6-11.02-3.51-17.36c-0.63-4.43-13.12-37.49-13.14-39.05
				C2974.31,95.71,2972.64,96.12,2969.88,94.99L2969.88,94.99z"/>
			<path id="svg_125_1_" class="st0" d="M3000.72,141.24c4.56-12.8,6.77-20.27,12.26-32.75c2.41-5.49,11.2-21.13,15.16-25.87
				c5.98-7.16,10.1-11.37,17.25-16.41c1.95-0.89,3.94-1.4,5.98-1.54c-0.94,0.65-18.2,37.13-15.05,36.99
				c-1.35,0.4-3.72,2.95-3.17,3.73c-3.14,0.22-4.82,4.92-4.27,5.62c-1,0.64-1.99,1.27-2.98,1.91c0.77,0.82,1.54,1.65,2.3,2.47
				c-1.77,0.53-3.55,1.07-5.32,1.61c1.05,0.62,2.03,0.6,3.1,0.61c-1.21,1.38-2.42,2.75-3.63,4.13c0.4,0.31,0.79,0.62,1.18,0.93
				c-1.52,0.91-3.12,1.55-3.79,2.63c-3.19,1.98-13.11,11.83-15.33,15.15L3000.72,141.24z"/>
			<path id="svg_126_1_" class="st0" d="M2997.53,157.3c10.01-6.59,15.48-12.92,23.43-22.35c6.09-7.24,14.5-16.38,23.39-23.19
				c6.1-4.68,24.09-6.62,23.27-5.9c0.82-0.02,8.76,6.92,10.49,7.72c-3.15,0.76-18.49,16.7-22.43,17.22c0.69,1.31,0.26,2.63,0.4,3.94
				c-1.78,0.38-3.33,1.3-5.4,1.79c0.75,0.78,1.5,1.57,2.25,2.35c-2.55,1.06-5.02,2.32-7.66,3.17c-1.24,1.44-2.47,2.87-3.71,4.31
				c-4.18,1.14-8.6,4.08-12.95,5.61c-3.24-1.38-19.46,0.96-29.15,7.27C2998.82,158.61,2998.18,157.95,2997.53,157.3L2997.53,157.3z"
				/>
			<path id="svg_127_1_" class="st9" d="M3019.27,152.18c4.47-1.93,9.02-4.01,13.04-7.64c2.7-0.23,3.94-0.26,6.69-0.9
				c1.22-1.8,3.11-3.62,4.91-5.57c2.67-1.67,6.3-3.93,8.09-7.25c1.76-0.05,3.34-0.25,5.1-0.31c-0.53,0.12-0.92,0.19-1.45,0.26
				c0.43,0.61,0.64,2.99,0.04,4.05l-15.13,13.53C3033.45,149.63,3026.38,151.09,3019.27,152.18z"/>
			<path id="svg_128_1_" class="st0" d="M3005.82,154.23c5.67-3.5,12.43-5.76,17.91-9.59c10.1-7.08,19.81-14.83,29.72-22.24
				c-10.04,7.23-20,14.59-30.12,21.69C3017.86,147.9,3011.35,150.54,3005.82,154.23L3005.82,154.23L3005.82,154.23z"/>
			<path id="svg_129_1_" class="st0" d="M3005.71,151.14c2.12-0.81,3.93-1.27,6.08-1.87c-0.44-0.64-0.88-1.28-1.32-1.92
				c1.81-0.58,3.64-1.13,5.55-1.47c-0.79-0.4-1.59-0.79-2.39-1.19c1.74-0.69,3.4-1.29,5.26-1.77c-0.34-0.39-0.67-0.78-1.01-1.17
				c1.02-0.36,2.59-0.12,3.58-0.24c-0.03-0.34-0.37-0.6-0.4-0.95c1.8-0.95,4.12-1.81,5.76-3.21c0.43-1.72,0.67-1.98,1.81-4
				c2.71-0.59,6.21-2.08,8.64-2.93c0.3-1.63,0.87-1.89,1.17-3.52c3.02-0.84,6.98-3.78,10.14-4.43c0.11-1.13,0.88-3.43-0.07-4.24
				c0.18-0.84,0.82-2.21,1.04-2.82c2.62-0.3,10.58-5.6,14.09-7.05c-0.45-0.41-29.95,11.24-39.88,19.29c-2.76,4.72-5.7,9.28-8.46,14
				l-1.64,1.92l-8.96,1.92l-5.38,6.35l-2.08,3.98l3.06-0.49l2.43-1.83c1.94-0.28,4.41-0.87,6.34-0.9
				C3007.83,152.09,3007.2,151.52,3005.71,151.14z"/>
			<path id="svg_130_1_" class="st0" d="M2998.44,151.22c11.97-12.82,29.96-42.95,30.34-42.3c2.15-4.15,18.55-19.93,19.21-19.62
				c3.3-1.58,10.33-5.33,9.54-4.33c2.64-0.05,9.38,4.54,11.53,3.76c1.02,0.8-0.28,5.02-0.04,5.9c-0.94,1.13-9.55,9.83-12.21,12.24
				c0.83,0.36,1.67,0.71,2.5,1.07c-3.55,1.31-6.89,3.51-10.66,3.94c-0.46,1.4-1.4,2.62-1.39,4.19c1.48,1.32,0.43,3.01,0.64,4.52
				c-2.73,0.34-4.48,1.86-6.72,2.79c-0.16,1.57-1.06,3.25-1.58,4.87c-3.51,1.72-9.95,1.36-12.75,3.07c-0.29,1.88-1.81,2.7-1.98,5.8
				c-3.02,2.32-6.58,3.91-11.41,4.78c-5.65,1.02-9.52,7.38-14.29,11.07L2998.44,151.22L2998.44,151.22z"/>
			<path id="svg_131_1_" class="st0" d="M3009.23,141.12c7.15-8.36,13.66-16.86,21.25-24.82c6.29-6.59,13.64-12.65,20.37-18.84
				c-6.62,6.35-13.54,12.43-19.86,19.06C3023.43,124.44,3016.48,132.92,3009.23,141.12L3009.23,141.12z"/>
			<path id="svg_132_1_" class="st10" d="M3007.5,135.42l10.33-11.5l-1.66,2.57l3.42-1.86l-2.16,3.82l4.65-1.37l-2.35,2.76
				l2.92,0.82l-6.54,6.44l2.41,0.24l-2.16,2.5l0.68,1.11l-10.08,2.53L3007.5,135.42z"/>
			<path id="svg_133_1_" class="st0" d="M2992.42,157.05l2.89-0.56c0.27-0.42,0.54-0.84,0.81-1.25c3.66-1.02,7.86-0.77,11.8-1.15
				c-3.35,0-6.7,0-10.05,0c4.45-1.52,8.62-1.45,12.93-2.17c-2.8-0.1-5.29-0.79-8.39-0.3c5.19-2.18,10.52-3.29,15.78-4.94
				c-3.06-0.14-5.62-0.99-8.44-1.48c4.39-0.4,7.8-1.99,12.06-2.11c-2.67-0.58-5.67-0.99-9.03-0.76c3.63-0.76,7.35-1.85,10.88-2.27
				c-3.63,0-7.27,0.16-11.43,0.96c4.15-1.45,8.21-3.13,12.46-4.35c-4.19,0.44-8.57,1.56-12.86,2.34c4.84-1.4,9.52-3,14.23-4.91
				c-4.29,1-8.11,1.59-12.31,2.04c4.4-1.56,8.63-3.89,12.95-5.83c-2.99,0.68-5.98,1.36-8.97,2.04c3.1-1.82,6.42-3.33,9.31-5.47
				c-3.02,1.19-5.54,1.47-8.64,2.27c2.36-1.67,4.45-3.41,6.39-5.5c-2.54,1.4-5.05,2.5-7.72,3.39c1.78-1.29,2.81-2.88,4.21-4.32
				c-1.87,1.56-3.76,2.7-5.62,4.68c0.57-1.96,1.88-3.32,2.82-4.98c-1.33,0.32-3.55,1.12-5.14,1.58c-1.33,1.6-2.32,2.73-4,4.81
				c0.84-1.54,1.99-3.1,2.52-4.61c-2.44,2.14-4.89,3.92-7.34,6.43c0.5-2.11,2.16-4.13,2.51-6.23c-2.36,2.42-3.96,4.56-5.63,7.32
				c0.57-1.72,0.76-3.38,0.58-4.98c-1.31,1.84-2.4,3.85-3.38,6.3c0.44-2.13-0.82-3.16-1.35-1.09c-0.03-1.67-0.07-3.34-0.1-5.01
				c-2.1,4.44-5.07,10.97-6.14,17.82C2990.5,147.93,2991.73,154.04,2992.42,157.05z"/>
			<path id="svg_134_1_" class="st0" d="M3005.15,166.05c6.17,3.05,11.26,8.69,17.83,10.1c10.9,2.35,25.46,1.08,35.74-2.41
				c5.67-1.93,11.49-4.53,16.83-7.74c-0.93-0.27-2.96,0.78-5.4,0.95c1.83-1.6,2.81-3.56,2.92-4.46c-5.61,0.35-11.05,1.13-16.9,2.82
				c-5.72,3.31-12.21,5.29-18.31,7.94c1.42-2.36,0.22-4.3-2.82-1.91c2-2.43-0.79-6.01-3.68-3.97c0.55-1.38,0.71-2.31,0.51-3.82
				c-4.44,1.32-8.36,2.99-12.19,5.52c-0.18-0.88-0.37-1.76-0.55-2.64C3014.74,167.16,3009.74,167.13,3005.15,166.05L3005.15,166.05
				L3005.15,166.05L3005.15,166.05z"/>
			<path id="svg_135_1_" class="st11" d="M3124.06,172.75c-13.83-4.86-28.7-10.06-41.09-15.4c-8.92-3.85-19.8-4.83-30.11-5.96
				c10.39,2.22,20.18,3.58,29.34,7.27c14.76,5.95,32.6,13.89,49.17,19.77 M3131.37,178.43c15.87,5.63,32.09,11.96,48.79,15.61
				c15.96,3.49,31.4,4.83,48.57,1.91c-19.54,2.35-35.66-1.7-53.05-6c-17.76-4.39-34.55-11.19-51.61-17.19"/>
			<path id="svg_136_1_" class="st0" d="M3009.41,157.9c14.59-2.01,35.89-0.74,50.45-3.51c8.65-1.64,34.69-17.37,36.37-18
				c-0.04-1.34-0.16-8.39-1.39-8.55c0.28-0.77,0.37-1.8-0.03-2.7c-1.54,0.72-26.63,3-28.9,4.84c-1.19-0.4-5.47,0.95-6.6,1.58
				c-2.44-0.05-4.89-0.11-7.33-0.16c-1.69,3.3-5.02,5.33-8.09,7.06c-1.52,1.62-3.4,3.52-4.49,5.59c-2.68,0.82-4.29,0.67-6.9,1.02
				c-4.9,3.88-15.82,9.8-23.01,11.15L3009.41,157.9L3009.41,157.9z"/>
			<path id="svg_137_1_" class="st0" d="M3016.75,156.39c9.29,0,18.91,0.03,28.24-1.73c11.48-2.16,22.86-5.98,34.2-10.03
				c-11.62,3.79-23.01,7.38-34.53,9.55C3035.36,155.93,3026.17,155.92,3016.75,156.39z"/>
			<path id="svg_138_1_" class="st12" d="M3011.2,157.55c6.7-0.72,13.48-0.8,19.83-1.09c5.34-0.25,10.74-0.41,16.06-0.66
				c-0.37-0.6-0.9-1.08-1.69-1.45c1.33-1.06,2.37-1.96,3-3.44c-1.62-0.89-2.81-1.75-5.11-1.58c-2.2,0.17-6.14,3.27-9.39,4.68
				c-1.25-1.02-2.06-1.43-3.77-1.45c-1.53,1.06-3.26,1.91-4.99,2.61c-2.17-0.57-3.83-1.32-5.57-2.39
				c-3.27,1.52-6.61,2.74-10.02,3.54L3011.2,157.55z"/>
			<path id="svg_139_1_" class="st0" d="M2999.95,163.28c2.05,5.57,5.52,16.24,8.78,20.96c8.44,12.22,14.09,17.64,26.91,24.88
				c6,3.39,33.81-3.09,35.36-4.89c-3.42,0.18-6.85,0.35-10.27,0.52c2.78-1.17,5.12-2.51,7.13-4.28c-6.71,1.22-12.65,0.86-20.12,3.66
				c3.77-2.04,4.79-3.48,7.07-5.47c-2.09-0.01-4.53,0.57-6.51,1.51c-0.92-1.66-2.2-2.78-4.76-3.89c0.69-1.06,1-2.28,1.21-3.49
				c-3.05,0.18-6.17-0.29-9.1-0.93c1.11-1.35,2.11-2.19,3.33-3.23c-2.07,0.04-4.13,0.09-6.2,0.13c-0.3-1.25-0.61-2.51-0.91-3.76
				c-1.9,0.97-3.8,1.93-5.7,2.9c0.95-2.08,1.31-3.94,1.1-5.87c-3.19-0.01-6.76-0.53-9.55-1.48c0.51-1.09,1.02-2.18,1.53-3.26
				c-2.81,0.62-7.96-0.75-7.48-3.2c-1.74-1.56-7.93-7.69-9.98-10.58L2999.95,163.28z"/>
			<path id="svg_140_1_" class="st0" d="M3005.39,164.33c11.69,8.15,24.95,19.29,37.35,26.32c5.29,3,11.85,4.11,17.99,5.61
				c4.31,1.05,8.91,1.36,13.36,2.05c0.82-1.7-6.24-16.66-7.23-17.31c-2.38,1.17-7.43,0.88-8.51-0.72c-1.68,0.12-6.56,2.51-8.59,3.71
				c1.21-1.42,2.48-2.58,4.06-3.63c-5.75-2.14-9.86-2.66-13.87-2.18c-1.71-1.11-2.18-2.31-3.03-4.02
				C3027.32,172.38,3015.93,168.87,3005.39,164.33L3005.39,164.33z"/>
			<path id="svg_141_1_" class="st0" d="M3001.68,165.79c5.81,7.98,11.76,16.13,19.12,22.62c7.43,6.54,15.94,12.71,25.24,16.45
				c6.74,2.72,15.53,3.31,22.89,2.94c1.45-1.33,2.9-2.66,4.35-3.99c-0.57-1.13-16.54-13.1-17.86-13.96
				c-2.03,0.52-26.11-32.68-39.4-43.97C3015.3,146.13,3002.39,165.53,3001.68,165.79z"/>
			<path id="svg_142_1_" class="st0" d="M2998.02,162.92c1.88,1.31,5.31,3.01,8.27,3.54c6.3,1.12,15.07,1.57,22.31-0.13
				c7.58-1.78,12.43-3.42,19.76-6.6c-2.34-0.85-7.54-5.18-9.54-4.08c-2.14,1.18-8.45,2.8-10.13,2.52c-1.19,1.14-2.22,2.27-3.94,3.63
				c-2.1-0.25-3.7-1.2-5.12-2.46c-1.12,0.16-2.24,0.33-3.36,0.5c-1.45,0.61-2.69,1.68-4.04,2.52c1.2-1.08,2.33-2.13,3.59-3.24
				c-2.05-1.45-4.09-3.06-5.42-2.82c0.17-0.83-0.39-3.21-0.22-4.04c-2.77,1.47-6.5,6.05-10.93,8.07L2998.02,162.92z"/>
			<path id="svg_143_1_" class="st0" d="M3226.73,205.31c-18.84-1.88-38.46-5.05-56.87-9.51c-13.43-3.26-59.78-21.8-72.85-27.79
				c13.57,5.01,61.17,23.34,75.16,26.72C3190.03,199.06,3208.16,202.38,3226.73,205.31z"/>
			<path id="svg_144_1_" class="st0" d="M2991.13,166.37c-6.24,7.67-12.23,15.94-17.09,24.81c3.72-5.15,6.16-9.44,9.89-14.29
				C2986.2,173.92,2989.25,169.59,2991.13,166.37z"/>
			<path id="svg_145_1_" class="st0" d="M2991.45,162.66c-5.78-1.91-11.77-3.43-17.33-5.74c-5.39-2.24-10.33-5.27-15.5-7.9
				c5.08,2.37,10.05,4.94,15.25,7.1C2979.62,158.52,2985.6,160.49,2991.45,162.66z"/>
			<path id="svg_146_1_" class="st0" d="M2995.3,151.24c1.24-2.08,2.19-4.36,3.72-6.23c1.64-1.99,3.87-3.56,5.81-5.34
				c-2.22,1.78-4.93,3.23-6.67,5.34C2996.73,146.75,2996.26,149.16,2995.3,151.24z"/>
			<path id="svg_147_1_" class="st0" d="M2997.38,159.44l-1.36-1.59l-0.37-2.91l-0.98,2.56l-1.41,1.54l2.12,0.56L2997.38,159.44z"/>
			<path id="svg_148_1_" class="st0" d="M2997.98,160.05l2.26,0.48l1.49-1.75l1.26,2.58l-3.24,2.07L2997.98,160.05z"/>
			<path id="svg_149_1_" class="st0" d="M2998.98,157.95l3.44-2.81l0.01,1.24l1.83-0.53l1.82,2.28l-3.41,0.45L2998.98,157.95
				L2998.98,157.95z"/>
			<path id="svg_150_1_" class="st0" d="M2997.33,157.29l-2.18-1.92l1.14-0.15l-0.42-1.8l1.63-1.82l-0.95,2.23l1.81-0.99l-0.86,2.03
				L2997.33,157.29z"/>
			<path id="svg_151_1_" class="st0" d="M2996.02,159.85l-4.11,0.04l-3.31-0.95l-0.22,1.22l-3.12,1.81l-1.5-0.4l-1.8,2.63l4.93,1.93
				l2.74,0.16l2.74-2.7l3.92-2.79L2996.02,159.85L2996.02,159.85z"/>
			<path id="svg_152_1_" class="st0" d="M2996.82,160.3l-3.77,0.84l-1.95,2.27l1.65,0.75l1.42-2.09l3.58-1.29L2996.82,160.3z"/>
			<path id="svg_153_1_" class="st0" d="M2997.5,158.91l-1.25,3.95l-1.74,1.57l0.63-2.99l-0.71-0.86L2997.5,158.91z"/>
			<path id="svg_154_1_" class="st0" d="M2997.74,157.85l0.72-1.95l2.78-0.73l-0.6,2.66l-2.65,1.44L2997.74,157.85z"/>
			<path id="svg_155_1_" class="st0" d="M2997.75,161.66l-1.49,2.79l0.68,1.61l-0.54,0.73l1.68,1.4l1.25-2.22l-0.68-5.35
				L2997.75,161.66z"/>
			<path id="svg_156_1_" class="st0" d="M2997.24,159.86l0.27,1.5l1.62-0.77l1.37-1.07l-1.73-0.38l-0.42-0.43L2997.24,159.86z"/>
		</g>
	</g>
	<polygon class="st0" points="779.27,2461.98 716.35,2461.98 716.35,2334.9 779.27,2323.68 	"/>
	<polygon class="st0" points="806.53,2461.98 779.27,2461.98 779.27,2323.68 806.53,2334.9 	"/>
	<polygon class="st0" points="882.46,2448.34 776.89,2448.34 776.89,2405.74 834.85,2401.81 882.46,2413.74 	"/>
	<rect x="843.23" y="2405.74" class="st0" width="79.84" height="49.94"/>
	<rect x="914.53" y="2411.65" class="st0" width="73.51" height="36.7"/>
	<rect x="960.92" y="2403.78" class="st0" width="62.21" height="26.93"/>
	<rect x="655.7" y="2411.65" class="st0" width="28.67" height="21.49"/>
	<rect x="676.51" y="2418.63" class="st0" width="26.21" height="12.08"/>
	<rect x="699.05" y="2414.79" class="st0" width="29.88" height="23.5"/>
	<polygon class="st0" points="1059.23,2438.29 1012.57,2438.29 1012.57,2380.39 1059.23,2377.63 	"/>
	<polygon class="st0" points="1066.57,2444.32 1059.23,2444.32 1059.23,2377.63 1066.57,2393.93 	"/>
	<rect x="1047.17" y="2401.81" class="st0" width="33.03" height="31.33"/>
	<path class="st0" d="M940.43,2414.18c0,6.83-9.07,12.37-20.27,12.37c-11.19,0-20.26-5.54-20.26-12.37
		c0-6.83,9.07-12.37,20.26-12.37C931.35,2401.81,940.43,2407.35,940.43,2414.18z"/>
	<path class="st0" d="M1116.37,2420.55c0,6.95-13.61,12.59-30.41,12.59s-30.41-5.64-30.41-12.59c0-6.95,13.61-12.59,30.41-12.59
		S1116.37,2413.6,1116.37,2420.55z"/>
	<rect x="1588.39" y="2391.78" class="st0" width="99.96" height="56.57"/>
	<polygon class="st0" points="1742.88,2473.92 1668.78,2473.92 1668.78,2270.63 1742.88,2258.55 	"/>
	<polygon class="st0" points="1781.36,2466.74 1742.88,2466.74 1742.88,2258.55 1781.36,2278.49 	"/>
	<rect x="1751.02" y="2403.78" class="st0" width="80.33" height="53.19"/>
	<polygon class="st0" points="1948.39,2461.98 1820.6,2461.98 1820.6,2387.16 1894.91,2378.34 1948.39,2378.34 	"/>
	<rect x="1931.61" y="2401.81" class="st0" width="72.35" height="64.93"/>
	<rect x="1988.23" y="2380.39" class="st0" width="42.99" height="53.88"/>
	<rect x="2031.22" y="2387.16" class="st0" width="16.78" height="45.98"/>
	<rect x="1938.42" y="2393.79" class="st0" width="24.65" height="23.13"/>
	<path class="st0" d="M1938.42,2383.35c0,5.77-6.54,10.44-14.62,10.44c-8.07,0-14.62-4.68-14.62-10.44s6.54-10.44,14.62-10.44
		C1931.88,2372.9,1938.42,2377.58,1938.42,2383.35z"/>
	<path class="st0" d="M1810.21,2404.53c0,6.85-7.91,12.4-17.67,12.4c-9.76,0-17.67-5.55-17.67-12.4c0-6.85,7.91-12.4,17.67-12.4
		C1802.3,2392.12,1810.21,2397.67,1810.21,2404.53z"/>
</g>
<g id="Layer_3">
	<linearGradient id="SVGID_6_" gradientUnits="userSpaceOnUse" x1="1332.6509" y1="2493.0549" x2="1224.8715" y2="1812.5624">
		<stop  offset="0" style="stop-color:#FFFFFF;stop-opacity:0"/>
		<stop  offset="0.0473" style="stop-color:#CFCFCF;stop-opacity:9.454477e-03"/>
		<stop  offset="0.0979" style="stop-color:#A4A4A4;stop-opacity:0.0196"/>
		<stop  offset="0.1541" style="stop-color:#7D7D7D;stop-opacity:0.0308"/>
		<stop  offset="0.2147" style="stop-color:#5B5B5B;stop-opacity:0.0429"/>
		<stop  offset="0.2808" style="stop-color:#3F3F3F;stop-opacity:0.0562"/>
		<stop  offset="0.3545" style="stop-color:#272727;stop-opacity:0.0709"/>
		<stop  offset="0.439" style="stop-color:#161616;stop-opacity:0.0878"/>
		<stop  offset="0.5408" style="stop-color:#090909;stop-opacity:0.1082"/>
		<stop  offset="0.6777" style="stop-color:#020202;stop-opacity:0.1355"/>
		<stop  offset="1" style="stop-color:#000000;stop-opacity:0.2"/>
	</linearGradient>
	<polygon class="st13" points="1095.49,2473.92 1453.48,2473.92 1453.48,1777.69 1130,1827.59 1095.49,1869.96 	"/>
	<linearGradient id="SVGID_7_" gradientUnits="userSpaceOnUse" x1="399.7817" y1="2482.3301" x2="516.9862" y2="1367.2043">
		<stop  offset="0" style="stop-color:#FFFFFF;stop-opacity:0"/>
		<stop  offset="0.0246" style="stop-color:#E5E5E5;stop-opacity:2.457488e-03"/>
		<stop  offset="0.0692" style="stop-color:#BDBCBC;stop-opacity:6.916809e-03"/>
		<stop  offset="0.1193" style="stop-color:#989697;stop-opacity:0.0119"/>
		<stop  offset="0.1738" style="stop-color:#787676;stop-opacity:0.0174"/>
		<stop  offset="0.234" style="stop-color:#5D5A5B;stop-opacity:0.0234"/>
		<stop  offset="0.3021" style="stop-color:#484445;stop-opacity:0.0302"/>
		<stop  offset="0.3815" style="stop-color:#373334;stop-opacity:0.0381"/>
		<stop  offset="0.4797" style="stop-color:#2C2829;stop-opacity:0.048"/>
		<stop  offset="0.6175" style="stop-color:#252122;stop-opacity:0.0618"/>
		<stop  offset="1" style="stop-color:#231F20;stop-opacity:0.1"/>
	</linearGradient>
	<polygon class="st14" points="319.75,2473.92 599.97,2473.92 599.97,1375.93 319.75,1347.61 	"/>
	<linearGradient id="SVGID_8_" gradientUnits="userSpaceOnUse" x1="413.907" y1="2445.1301" x2="98.6625" y2="1414.0115">
		<stop  offset="0" style="stop-color:#FFFFFF;stop-opacity:0"/>
		<stop  offset="0.0246" style="stop-color:#E5E5E5;stop-opacity:4.914975e-03"/>
		<stop  offset="0.0692" style="stop-color:#BDBCBC;stop-opacity:0.0138"/>
		<stop  offset="0.1193" style="stop-color:#989697;stop-opacity:0.0239"/>
		<stop  offset="0.1738" style="stop-color:#787676;stop-opacity:0.0348"/>
		<stop  offset="0.234" style="stop-color:#5D5A5B;stop-opacity:0.0468"/>
		<stop  offset="0.3021" style="stop-color:#484445;stop-opacity:0.0604"/>
		<stop  offset="0.3815" style="stop-color:#373334;stop-opacity:0.0763"/>
		<stop  offset="0.4797" style="stop-color:#2C2829;stop-opacity:0.0959"/>
		<stop  offset="0.6175" style="stop-color:#252122;stop-opacity:0.1235"/>
		<stop  offset="1" style="stop-color:#231F20;stop-opacity:0.2"/>
	</linearGradient>
	<polygon class="st15" points="181.32,2473.92 319.75,2473.92 319.75,1347.61 181.32,1388.74 	"/>
	<linearGradient id="SVGID_9_" gradientUnits="userSpaceOnUse" x1="397.3269" y1="2346.5876" x2="-71.4343" y2="1534.6696">
		<stop  offset="0" style="stop-color:#FFFFFF;stop-opacity:0"/>
		<stop  offset="0.0246" style="stop-color:#E5E5E5;stop-opacity:7.372463e-03"/>
		<stop  offset="0.0692" style="stop-color:#BDBCBC;stop-opacity:0.0208"/>
		<stop  offset="0.1193" style="stop-color:#989697;stop-opacity:0.0358"/>
		<stop  offset="0.1738" style="stop-color:#787676;stop-opacity:0.0521"/>
		<stop  offset="0.234" style="stop-color:#5D5A5B;stop-opacity:0.0702"/>
		<stop  offset="0.3021" style="stop-color:#484445;stop-opacity:0.0906"/>
		<stop  offset="0.3815" style="stop-color:#373334;stop-opacity:0.1144"/>
		<stop  offset="0.4797" style="stop-color:#2C2829;stop-opacity:0.1439"/>
		<stop  offset="0.6175" style="stop-color:#252122;stop-opacity:0.1853"/>
		<stop  offset="1" style="stop-color:#231F20;stop-opacity:0.3"/>
	</linearGradient>
	<polygon class="st16" points="132.32,2471.3 181.32,2471.3 181.32,1388.74 132.32,1473.15 	"/>
</g>
<g id="Layer_6">
</g>
<g id="Layer_4">
</g>
</svg>
