<?xml version="1.0" encoding="utf-8"?>
<!-- Generator: Adobe Illustrator 24.3.0, SVG Export Plug-In . SVG Version: 6.00 Build 0)  -->
<svg version="1.1" xmlns="http://www.w3.org/2000/svg" xmlns:xlink="http://www.w3.org/1999/xlink" x="0px" y="0px"
	 viewBox="0 0 2048 3072" style="enable-background:new 0 0 2048 3072;" xml:space="preserve">
<style type="text/css">
	.st0{fill:#FFEABE;stroke:#231F20;stroke-miterlimit:10;}
	.st1{display:none;fill:url(#SVGID_1_);}
	.st2{fill:url(#SVGID_2_);}
	.st3{fill:#F5AB73;}
	.st4{fill:none;}
	.st5{fill:#B2C664;}
	.st6{fill:#9EB247;}
	.st7{fill:#FFEABE;}
	.st8{fill:#FFEABE;fill-opacity:0.1265;}
	.st9{fill:#FFEABE;fill-opacity:0.1918;}
	.st10{fill:#FFEABE;fill-opacity:0.3471;}
	.st11{fill:#FFEABE;fill-opacity:0.1518;}
	.st12{fill:url(#SVGID_3_);}
	.st13{fill:url(#SVGID_4_);}
	.st14{fill:url(#SVGID_5_);}
	.st15{fill:url(#SVGID_6_);}
</style>
<g id="Layer_1">
	<g id="Layer_1_1_">
		<rect class="st0" width="2048" height="3072"/>
	</g>
	
		<radialGradient id="SVGID_1_" cx="1296.9999" cy="1765.0007" r="1064.4514" gradientTransform="matrix(1 0 0 -1 0 3074)" gradientUnits="userSpaceOnUse">
		<stop  offset="0" style="stop-color:#27AAE1;stop-opacity:0.6"/>
		<stop  offset="0.2717" style="stop-color:#29ABE1;stop-opacity:0.437"/>
		<stop  offset="0.4158" style="stop-color:#31AEE2;stop-opacity:0.3505"/>
		<stop  offset="0.5301" style="stop-color:#3FB3E4;stop-opacity:0.282"/>
		<stop  offset="0.6286" style="stop-color:#52BBE7;stop-opacity:0.2228"/>
		<stop  offset="0.717" style="stop-color:#6BC5EA;stop-opacity:0.1698"/>
		<stop  offset="0.7982" style="stop-color:#8AD1EF;stop-opacity:0.1211"/>
		<stop  offset="0.8738" style="stop-color:#AEDFF4;stop-opacity:7.570000e-02"/>
		<stop  offset="0.9432" style="stop-color:#D7EFF9;stop-opacity:3.410000e-02"/>
		<stop  offset="1" style="stop-color:#FFFFFF;stop-opacity:0"/>
	</radialGradient>
	<rect class="st1" width="2049.9" height="2060.9"/>
	
		<radialGradient id="SVGID_2_" cx="1274.207" cy="1516.7462" r="1189.054" gradientTransform="matrix(1 0 0 -1 0 3074)" gradientUnits="userSpaceOnUse">
		<stop  offset="0" style="stop-color:#00A79D;stop-opacity:0.6"/>
		<stop  offset="0.227" style="stop-color:#03A7A2;stop-opacity:0.4638"/>
		<stop  offset="0.484" style="stop-color:#0BA8AF;stop-opacity:0.3096"/>
		<stop  offset="0.7545" style="stop-color:#17A9C6;stop-opacity:0.1473"/>
		<stop  offset="1" style="stop-color:#27AAE1;stop-opacity:0"/>
	</radialGradient>
	<polygon class="st2" points="2048,2423.5 -99.4,2423.5 -99.4,187.1 687.8,187.1 2048,187.1 	"/>
</g>
<g id="Layer_2">
</g>
<g id="Layer_4_1_">
	<path class="st3" d="M1788.1,971.9l-343.9,293.9c-52.6-35.4-112.4-55-172.9-58.9l-43.6-116l-37,120
		c-58.1,9.5-114.1,33.6-162.1,72.2l-363.1-275.7l296.1,346.6c-35.7,50.2-56.5,107.5-62.7,166l-117.6,43.8l118.3,36.8
		c7.4,60.2,30.4,118.8,68.8,169.2l-273.6,360.3l343.9-293.9c52.6,35.4,112.4,55,172.9,58.9l43.6,116l37-120
		c58.1-9.5,114.1-33.6,162.1-72.2l363.1,275.7L1521.3,1748c35.7-50.2,56.5-107.5,62.7-166l117.6-43.8l-118.3-36.8
		c-7.4-60.2-30.4-118.8-68.8-169.2L1788.1,971.9z M1381.4,1444.2c40,58.7,41.3,136.5,2.9,196.5l201.3,235l-246.2-187.4
		c-57.7,41.8-135.5,45-196.4,8.4l-148.7,116.1l0-0.1l-0.1,0l107.3-155.1c-40-58.7-41.3-136.5-2.9-196.5l-201.3-235l246.2,187.4
		c57.7-41.8,135.5-45,196.4-8.4l148.7-116.1l-0.1,0.1l0.1,0L1381.4,1444.2z"/>
	<g id="Layer_5">
		<g id="RukXRM_1_">
			<g>
				<path class="st4" d="M1781.4,978.6c-74.1,57.4-148.2,114.8-222.2,172.2c-44.3,34.3-88.6,68.4-132.6,103c-6,4.7-10,5.4-16.8,1.5
					c-41.4-23.5-85.8-37.9-133.3-41.8c-5.5-0.5-7.2-3.3-8.6-7.8c-10.5-33.6-21.1-67.2-31.7-100.7c-2.1-6.6-4.3-13.2-7.3-22.1
					c-1.1,3.8-1.5,5.2-1.8,6.5c-9.9,38.9-19.9,77.9-29.5,116.9c-1.5,6.1-4,8.9-10.7,10.1c-15.5,2.8-30.9,6.4-45.9,10.7
					c-32.6,9.5-62.5,24.8-90.9,43.7c-127-86.9-253.8-173.6-380.6-260.3c-0.6,0.6-1.2,1.2-1.8,1.8c2.2,2.5,4.7,4.8,6.7,7.5
					c57,73.6,114,147.2,171,220.8c33.7,43.5,67.5,87,101.4,130.3c3.6,4.6,2.9,7.8,0.3,12.2c-24.1,41.5-38,86.4-43.2,133.9
					c-0.6,6-2.6,8.5-8.1,10.2c-37.5,11.6-74.8,23.6-112.2,35.4c-2.4,0.8-4.7,1.8-8.3,3.2c2.2,1.1,2.9,1.7,3.7,1.9
					c39.3,9.9,78.5,19.9,117.8,29.4c6.3,1.5,9,4.2,10,10.9c7.4,46.4,24,89.4,49.7,128.7c4.1,6.3,3.9,10.1-0.3,16.1
					c-55.3,80.4-110.4,161-165.4,241.6c-30.1,44.1-60.1,88.4-90.1,132.5C700.6,2127.5,1782.5,977.8,1781.4,978.6z"/>
				<path class="st4" d="M700.7,2126.9c23.5-18,47.1-35.9,70.6-54c96.4-74.5,192.7-149.1,289-223.9c4.9-3.8,8.3-4.3,13.8-1.2
					c41.8,24.1,86.8,38.5,134.9,43.1c2.9,0.3,6.9,3.8,7.9,6.7c7.6,22.5,14.6,45.3,21.8,67.9c5.6,17.7,11.3,35.4,17.7,55.3
					c1.6-4.7,2.5-6.9,3.1-9.3c9.6-37.7,19.3-75.4,28.4-113.3c1.7-7,4.6-9.4,11.3-10.4c46.1-7.3,88.8-23.8,127.9-49.3
					c6.6-4.3,10.7-3.8,16.9,0.4c120.7,82.8,241.6,165.4,362.5,248c2.9,2,6,3.8,9,5.6c-7.2-11.5-15-22.1-23-32.5
					c-84.3-108.8-168.6-217.5-253.1-326.2c-3.6-4.6-3.6-7.9-0.7-13c23.6-41.3,38.2-85.7,42.7-133.1c0.6-6.1,2.8-9.1,8.7-10.9
					c32.8-10,65.4-20.4,98.1-30.7c7.1-2.3,14.2-4.7,22-7.2c-1.5-1.3-1.8-1.9-2.3-2c-39.3-9.9-78.5-19.8-117.8-29.5
					c-6-1.5-10.2-3-11.4-10.6c-7.3-47.4-24.4-91.2-50.8-131.2c-3-4.5-3.2-7.5,0-12.1c11.7-16.3,22.8-33,34.2-49.6
					c44.5-65,89-130,133.4-195c30.3-44.4,60.5-88.8,90.7-133.3"/>
				<path class="st3" d="M669.2,1010.5c126.8,86.7,235.3,194.6,362.3,281.5c28.5-18.9,76.6-55.4,109.2-64.9
					c15.1-4.4,30.5-8,45.9-10.7c6.7-1.2,9.2-4,10.7-10.1c9.7-39,19.6-77.9,29.5-116.9c0.3-1.4,0.8-2.7,1.8-6.5
					c2.9,8.9,5.2,15.4,7.3,22.1c10.6,33.6,21.2,67.1,31.7,100.7c1.4,4.5,3.1,7.4,8.6,7.8c47.5,3.9,92,18.3,133.3,41.8
					c6.8,3.9,21.2,49.4,27.2,44.7c44-34.6,93.8-98.9,138.1-133.2c74.1-57.4,136.1-105.8,105.8-61.5c-44.4,65-101.6,124.4-146,189.4
					c-11.3,16.6-30.3,36.6-42,52.9c-3.3,4.6,31.9,13.4,34.9,17.9c26.4,40,43.6,83.8,50.8,131.2c1.2,7.6,5.3,9.1,11.4,10.6
					c39.3,9.7,78.6,19.6,117.8,29.5c0.5,0.1,0.8,0.7,2.3,2c-7.8,2.6-14.9,5-22,7.2c-32.7,10.3-65.3,20.7-98.1,30.7
					c-6,1.8-8.2,4.8-8.7,10.9c-4.4,47.5-19,91.8-42.7,133.1c-2.9,5.1-2.9,8.3,0.7,13c84.5,108.6,168.8,217.4,253.1,326.2
					c8.1,10.4,15.8,21,23,32.5c-3-1.9-6.1-3.6-9-5.6c-120.9-82.6-241.7-165.2-362.5-248c-6.2-4.3-10.3-4.7-16.9-0.4
					c-39.1,25.5-81.8,42-127.9,49.3c-6.7,1.1-9.7,3.5-11.3,10.4c-9,37.9-18.8,75.6-28.4,113.3c-0.6,2.4-1.5,4.6-3.1,9.3
					c-6.4-19.9-12-37.6-17.7-55.3c-7.2-22.7-14.2-45.4-21.8-67.9c-1-2.9-5-6.4-7.9-6.7c-48.1-4.7-93.1-19.1-134.9-43.1
					c-5.5-3.2-8.9-2.6-13.8,1.2c-96.2,74.7-192.6,149.3-289,223.9c-23.4,18.1-47,36-70.6,54c30-44.2,77-73.8,107.1-117.9
					c55-80.6,117.2-158.7,172.5-239.1c4.2-6-19.8-27-23.9-33.2c-25.7-39.3-42.3-82.3-49.7-128.7c-1.1-6.6-3.7-9.3-10-10.9
					c-39.3-9.6-78.6-19.6-117.8-29.4c-0.8-0.2-1.5-0.7-3.7-1.9c3.5-1.4,5.8-2.4,8.3-3.2c37.4-11.9,74.7-23.8,112.2-35.4
					c5.5-1.7,7.5-4.2,8.1-10.2c5.1-47.6,19.1-92.4,43.2-133.9c2.6-4.4,31-34.8,27.4-39.4 M1424.6,1360.4c-0.5-0.4-1-0.8-1.5-1.2
					c-25.2,15.1-50.4,30.1-75.5,45.4c-4.9,3-8.3,3-13.3,0.1c-65.1-37.8-129.3-35.5-192.1,5.7c-5,3.3-8.3,3.2-13.2,0.6
					c-24.3-12.9-48.7-25.5-73.1-38.2c-1.6-0.8-3.4-1.3-7-2.6c16.3,27.2,31.7,52.5,46.6,78.2c1.5,2.7,1.7,7.7,0.2,10.4
					c-38.4,65.8-36.2,130.4,5.4,193.8c3,4.6,3.3,7.8,0.8,12.3c-6.4,11.6-12.5,23.4-18.6,35.2c-7.5,14.4-15,28.9-23.6,45.5
					c3.8-2,5.3-2.7,6.8-3.6c23.6-14.1,47.2-28.2,70.8-42.5c4.1-2.5,7.3-4,12.5-0.9c65.2,38.2,129.6,36.8,192.9-4.9
					c4.7-3.1,8.2-3.6,13.3-0.8c23.1,12.4,46.4,24.4,69.7,36.6c2.8,1.5,5.8,2.8,11.1,5.4c-16.6-27.6-31.6-52.9-46.9-77.9
					c-3-4.8-2.9-8.4,0-13.4c37-64.1,35.7-127.5-4.3-189.8c-4-6.2-4.8-10.8-1.1-17.4C1398.2,1411.2,1411.3,1385.7,1424.6,1360.4z"/>
				<path class="st4" d="M1424.6,1360.4c-13.3,25.4-26.3,50.9-40,76c-3.6,6.7-2.8,11.3,1.1,17.4c40.1,62.3,41.4,125.7,4.3,189.8
					c-2.9,5-3,8.5,0,13.4c15.3,25,30.3,50.3,46.9,77.9c-5.3-2.6-8.2-4-11.1-5.4c-23.3-12.1-46.6-24.1-69.7-36.6
					c-5.1-2.8-8.7-2.2-13.3,0.8c-63.2,41.7-127.7,43.1-192.9,4.9c-5.2-3-8.4-1.5-12.5,0.9c-23.6,14.2-47.2,28.3-70.8,42.5
					c-1.5,0.9-3,1.6-6.8,3.6c8.6-16.6,16.1-31.1,23.6-45.5c6.1-11.8,12.2-23.6,18.6-35.2c2.5-4.6,2.2-7.7-0.8-12.3
					c-41.7-63.4-43.8-128-5.4-193.8c1.5-2.6,1.4-7.7-0.2-10.4c-14.9-25.6-30.3-51-46.6-78.2c3.5,1.3,5.3,1.7,7,2.6
					c24.4,12.7,48.8,25.3,73.1,38.2c4.9,2.6,8.2,2.6,13.2-0.6c62.8-41.2,126.9-43.5,192.1-5.7c5,2.9,8.4,2.9,13.3-0.1
					c25-15.4,50.3-30.3,75.5-45.4C1423.6,1359.6,1424.1,1360,1424.6,1360.4z M1368.6,1568.7c9.3-69.6-39.1-133.2-108.7-142.7
					c-70.3-9.6-134.1,39.3-143.6,109.8c-9.2,69.1,39.9,133,109.3,142.2C1295.8,1687.4,1359.2,1638.9,1368.6,1568.7z"/>
				<path class="st3" d="M1368.6,1568.7c-9.4,70.2-72.8,118.7-142.9,109.4c-69.4-9.2-118.6-73.2-109.3-142.2
					c9.4-70.5,73.3-119.4,143.6-109.8C1329.5,1435.5,1377.9,1499.1,1368.6,1568.7z"/>
			</g>
		</g>
	</g>
</g>
<g id="Layer_3_1_">
	<g id="Layer_2_1_">
		<polygon class="st5" points="665,2423.5 665,2107.6 853.6,1990.3 922.4,1796.6 1295.4,1551 1437.4,1337.4 1694.9,1166.8 
			1820.4,1229 2048,1166.8 2048,2423.5 		"/>
		<polyline class="st6" points="1799.5,2385.4 1575.1,2364.5 1615.7,2322.5 1698.8,2313.4 1682.8,2302.9 1630.3,2295.3 1559,2240.7 
			1703,2222.6 1941.6,2270.7 1801.7,2229.8 1724.6,2181 1531.1,2223.3 1557.9,1835 1701.8,1861.2 1809.5,1769.9 1594,1778.2 
			1552,1769.9 1691.6,1701.8 1809.5,1667.2 1824,1653.6 1780.6,1618.9 1798.1,1604.3 1780.6,1551.8 1833.1,1522.8 1849.8,1506.1 
			1798.1,1520.7 1739.7,1524.9 1745,1535.1 1771.2,1540.5 1755.5,1570.7 1760.7,1589.6 1691.6,1594.8 1616,1584.3 1603.1,1578.1 
			1658.5,1570.7 1671.1,1560.8 1658.5,1551.8 1671.1,1529.1 1598.5,1520.7 1582.1,1513.7 1624,1498.4 1631,1478.1 1680,1425.7 
			1658.5,1394.5 1652,1368.4 1603.1,1361 1603.1,1346.5 1594,1334.8 1492.7,1347.6 1732.7,1283 1712,1315.3 1658.5,1330.2 
			1712,1355.3 1671.1,1389.9 1722.3,1421.4 1809.5,1330.2 1798.1,1262.1 1705.8,1184.5 1825.4,1246 1862.4,1330.2 1862.4,1443.8 
			1975.7,1372.7 1947.3,1315.3 1985.1,1347.6 2039.6,1361 2012.3,1375.8 2026,1382 2019.2,1387 1970.9,1401.9 1966.2,1414 
			2012.3,1434.6 2048,1423 2048,2391.8 		"/>
		<polygon class="st6" points="1054.8,2372.9 889.1,2363.5 996.4,2341.4 1013.7,2327.3 1084.8,2305.3 1068.8,2295.8 1013.7,2295.8 
			807.7,2327.3 557.6,2314.7 790.4,2245.5 846.2,2256.5 977.5,2218.8 902,2196.8 790.4,2187.3 876.1,2177.9 949.2,2187.3 
			987,2168.4 968.1,2162.2 949.2,2151.1 987,2140.1 974.3,2125.8 876.1,2111.8 902,2104 1013.7,2093 1068.8,2104 1128.5,2004.9 
			1068.8,1982.9 936.7,1993.9 1112.8,1924.9 1112.8,1875.9 1024.7,1828.2 1084.8,1828.2 1092.3,1819.3 1068.8,1808.7 1128.5,1808.7 
			1183,1828.2 1227,1844.4 1402.8,1703.9 1356.5,1601.1 1392.7,1622.1 1453.5,1578.1 1482.8,1508.8 1470.2,1600.1 1423.1,1652.5 
			1455.7,1703.9 1392.7,1808.7 1274.5,2352.5 		"/>
		<polygon class="st7" points="1608.7,2473.9 1453.5,2473.9 1453.5,1777.7 1608.7,1830.1 		"/>
		<polygon class="st7" points="1095.5,2473.9 1453.5,2473.9 1453.5,1777.7 1130,1827.6 1095.5,1870 		"/>
		<polygon class="st7" points="600,2473.9 665,2473.9 665,1461.1 600,1375.9 		"/>
		<polygon class="st7" points="319.8,2473.9 600,2473.9 600,1375.9 319.8,1347.6 		"/>
		<polygon class="st7" points="181.3,2473.9 319.8,2473.9 319.8,1347.6 181.3,1388.7 		"/>
		<polygon class="st7" points="132.3,2471.3 181.3,2471.3 181.3,1388.7 132.3,1473.2 		"/>
		<g>
			<path class="st7" d="M52,975.9c0,11,8.9,21.2,19.8,22.8l94.3,13.2c10.9,1.5,28.8,2.6,39.8,2.3l294.8-6.2c11-0.2,29-0.6,40-0.8
				l196.3-3.5c11-0.2,29,0.5,39.9,1.5l5.6,0.5c11,1,22.9,0,26.6-2.4c3.7-2.3-2.4-4.4-13.3-4.7l-189.3-5.2c-11-0.3-21.6-3.1-23.5-6.1
				s-6.2-7.1-9.4-9c-3.3-1.8-14.9-4.2-25.8-5.3l-34.3-3.3c-11-1.1-28.9-1.6-39.9-1.1l-47.4,1.9c-11,0.5-21.7-4.9-23.8-11.8
				c-2.1-6.9-8.6-15.4-14.3-18.9s-19.4-7.5-30.3-8.9l-56.8-7.4c-10.9-1.4-28.7-1.2-39.6,0.5L141.4,943c-10.9,1.7-28.8,3.1-39.8,3.1
				H72.1c-11,0-20,9-20,20C52.1,966.1,52.1,975.9,52,975.9z"/>
		</g>
		<g>
			<path class="st7" d="M275.2,1263.5c11,0,29-0.2,40-0.3l372.4-6.3c11-0.2,24.7-2.1,30.5-4.2c5.8-2.1,1.5-4.4-9.5-5.1l-170.4-10.8
				c-11-0.7-18.9-6.9-17.6-13.7c1.3-6.8,0.2-17.4-2.4-23.4c-2.6-6.1-9.3-13.8-14.9-17.3c-5.6-3.5-19.1-7.9-29.9-9.8l-12.5-2.2
				c-10.8-1.9-22.2-11-25.2-20.1s-12.7-22-21.5-28.6l-8.9-6.7c-8.8-6.6-25-12.7-35.9-13.5l-159.9-12c-11-0.8-28.9-0.6-39.8,0.6
				l-97.8,10.1c-10.9,1.1-19.9,11.1-19.9,22.1v121.3c0,11,9,20,20,20L275.2,1263.5L275.2,1263.5z"/>
		</g>
		<g>
			<path class="st7" d="M637.6,844.6c11,0,29-0.1,40-0.3l612.2-8.9c11-0.2,28.9-1.8,39.7-3.5l24.5-4c10.8-1.8,10.7-3.6-0.2-4
				l-220.1-8c-11-0.4-28.9-2.1-39.7-3.8l-4.9-0.8c-10.9-1.7-20.9-6.6-22.4-10.8c-1.4-4.2-4.2-10.4-6.1-13.6c-1.9-3.3,2-7.2,8.7-8.7
				s15.1-4.7,18.5-7c3.5-2.3-2.7-4.2-13.7-4.2h-7.5c-11,0-25.5-1.9-32.2-4.2c-6.7-2.3-13.1-8.7-14.1-14.1c-1-5.4-5.8-13.4-10.5-17.8
				s-17.6-8.5-28.6-9.4l-41.9-3.2c-11-0.8-22.8-4.4-26.2-7.8c-3.5-3.5-15.2-7.3-26.2-8.4l-18.4-2c-10.9-1.2-28.8-1.3-39.8-0.2
				l-23.9,2.4c-11,1.1-18.2-6.9-16-17.7l0.9-4.8c2.1-10.8,0-25.6-4.8-33s-17.1-16.4-27.5-20.1l-23.7-8.5
				c-10.3-3.7-27.8-7.2-38.8-7.8l-246.3-12.2c-11-0.5-29-0.5-40,0.1L72,616.4c-11,0.6-20,10.1-20,21.1v187.1c0,11,9,20,20,20H637.6z
				"/>
		</g>
		<g>
			<path class="st7" d="M827.8,1859.1c11-0.1,26.4-1.6,34.2-3.3c7.8-1.7,5.2-4-5.8-5l-45.1-4.2c-11-1-23.1-6.2-27-11.6
				s-15.8-12-26.4-14.7l-28.9-7.5c-10.7-2.8-28.3-5.7-39.3-6.5l-133.1-9.8c-11-0.8-20,7.5-20,18.5v26c0,11,9,19.9,20,19.9
				L827.8,1859.1z"/>
		</g>
		<g>
			<path class="st7" d="M401.8,1044.8c10.8,2.2,13.7,6.3,6.5,9.2c-7.2,2.9-22,6.9-32.8,9l-26.8,5.1c-10.8,2.1-28.6,3.7-39.6,3.7
				H72.1c-11,0-20-9-20-20V1016c0-11,9-20.8,19.9-21.7L245,979.2c11-1,28.7,0.4,39.4,2.9l40,9.6c10.7,2.6,24.1,12.4,29.7,21.8
				l4.6,7.6c5.7,9.4,19.1,18.9,29.9,21.1L401.8,1044.8z"/>
		</g>
		<g>
			<path class="st7" d="M505.6,863c3.5,2.7,2.4,8.5-2.4,12.9c-4.8,4.4-17.5,9.6-28.4,11.5l-5.4,1c-10.8,1.9-28.7,3.5-39.7,3.5h-241
				c-11,0-20-9-20-20v-35.5c0-11,9-20.8,19.9-21.7l176.9-15.4c11-1,28.8-0.2,39.6,1.8l73,13.1c10.8,1.9,20,12.5,20.4,23.5l0,0.6
				C499,849.1,502.1,860.3,505.6,863z"/>
		</g>
		<g>
			<path id="path3609_1_" class="st7" d="M923.1,2252c-8.8,12-19.1,18.5-24.5,32.1c-4.3,11-4.9,23.6-3.7,35.4
				c0.3,3.3,2.2,12,3.7,15.5c-0.1-1.7,15.7-10.2,17.4-10.7c-0.5-4.4-3.3-15.6-5.8-23C909.9,2283.8,917.1,2272.2,923.1,2252
				L923.1,2252z"/>
			<path id="path3567_1_" class="st7" d="M857.5,2493c-5.8,2.9-8.7,4.1-16.4,6.2c3.6-9.6,6.1-18.8,8.4-28.3
				c5.3-21.8,14.5-45.9,25.5-66.9c12-23,24.8-44.7,36.9-66.5c7.7-13.7,10.8-30.5,13.6-46.2c1.1-6.1-0.1-13.4-2-19.3
				c-1-3.1-4.4-5.1-6.6-7.6c1.5-2.8,3.1-5.7,4.6-8.5c4.9,0.3,9.8,0.7,14.7,1c-1.3,7.3-3,14.5-3.8,21.9c-0.5,4.4,1,9.1,0.2,13.4
				c-2.5,12.2-4.6,25.1-9.3,36.6c-5.5,13.3-13.5,25.4-19.9,38.1c-3.7,7.4-7.3,14.7-11.1,22.1c-8.1,15.5-15.3,30.6-21.9,46.2
				C862.2,2454.2,856.4,2474.8,857.5,2493z"/>
			<path id="path6857_1_" class="st7" d="M860.6,2436.8c0.9-1.2,7.2,1.3,7,3.1c-1.5,4.1-3,8.2-4.5,12.3c0.3-1.8-6-4.1-6.9-2.2
				C857.5,2445.6,859.1,2441.2,860.6,2436.8z"/>
			<path id="path3195_1_" class="st7" d="M881.5,2392.1c1-2.1,7.7,1,6.5,3.9c-1.5,3.3-3.2,6.6-4.9,9.7c0.6-2.1-5.1-6.3-6.5-4.4
				C878.5,2398.1,879.8,2395.3,881.5,2392.1z"/>
			<path id="path2287_1_" class="st7" d="M875,2422.9c0.6-1.8-6.3-5.6-7.1-3.9c-2.3,5.2-4.7,10.6-6.8,15.8c0.6-1.2,7.6,1.8,7.2,3.5
				C870.5,2433.1,873.4,2428.2,875,2422.9z"/>
			<path id="path4085_1_" class="st7" d="M882.7,2390.5c1.2-1.8,7.2,2.1,6.5,3.5c1.5-2.3,3.5-6,5-9.3c0.7-1.6-5.5-5.1-6.2-4
				C886.2,2383.8,884.3,2387,882.7,2390.5z"/>
			<path id="path4087_1_" class="st7" d="M889,2378.7c1-0.8,6.1,2.4,5.8,3.9c1.5-3.2,3.2-6,4.6-9.2c0.2-1.1-5.1-4-5.9-3.1
				C892.1,2373.2,890.6,2375.9,889,2378.7z"/>
			<path id="path4089_1_" class="st7" d="M900.7,2371.1c0.2-0.9-5-3.6-5.7-2.9c1.3-2.6,3-5.2,4.3-7.9c1-1.1,5.8,1.7,5.8,2.4
				C903.8,2365.6,902.1,2368.4,900.7,2371.1z"/>
			<path id="path5972_1_" class="st7" d="M921.6,2266.4c2.3,5.5,4.6,14.5,4.5,20.9c-0.1,3.4-3.9,22.8-6.2,30.8l14.2-29.6l-4.1-28.2
				L921.6,2266.4L921.6,2266.4z"/>
			<path id="path2870_1_" class="st7" d="M924.1,2235.1l13.7-0.9l5.2,12.2l1.2,16.2l-8.6,10.5c-4.4-6.2-11.2-2.9-15.2-8.5l-4.4-9.7
				l-7.8-8.6l2.9-5.6L924.1,2235.1z"/>
			<path id="path3587_1_" class="st7" d="M939.6,2239.9c8.6-1.3,17.3-2.4,25.8-3.9c15.6-2.8,30.1-3,41.4,0.5
				c8.3,2.6,20.3,9.2,21.9,10.8c1.6,2.7,1.7,5.7,3.1,8.4c-1.7-2.3-69.6-4.8-70.4-2c-1.2-2.4-6.1-8-8.7-9.4c-3.1-0.4-10.5-2.3-12-2.9
				L939.6,2239.9L939.6,2239.9z"/>
			<path id="path3611_1_" class="st7" d="M928.1,2238.1c-0.5-3.4,1.3-6.3,0.7-9.8c-0.8,0.3-1.5,0.6-2.2,0.8
				c-0.5-2.3-23.2-18.2-25.5-20.8c-3.5,0.4-16.1,10.1-17.9,15.6c1.7-0.5,25.6,15.5,28.5,15.4c1.8,2.1,4,1.7,5.6,3.9
				c2.9-0.1,3.7-4.2,5.9-4l3.5,4.6l4.5-2.8L928.1,2238.1z"/>
			<path id="path3613_1_" class="st7" d="M929.3,2241.2c0.9-4.2,7-8.7,7.9-12.9c2.3-0.1,6.1-3.5,7.1-2c1-2.3,3.8-3.9,4.7-5.5
				c0,0-0.5-3.2,2.1-2.9c2.5-2.4,7.4-15,9.8-15.6c-0.4-2.4,2.5-6.7,3.7-7.7c-0.5-1.1-1-2-1.8-3.2c-0.9-0.3-18.5,3.8-21.8,9
				c0.4,1.2-4.4,5.3-5,6.6c1.3,1.1,0.5,1.3-0.4,1.2c-2.9,3.8-6.7,16.9-9.6,20.7c0.2,3.6-0.5,4.2-0.2,7.9L929.3,2241.2z"/>
			<path id="path3615_1_" class="st7" d="M928.8,2241c-11.7-0.6-22.7-2.9-34.4-3c-10.8-0.1-22.7,1.1-32.9,3.9
				c-10,2.7-23.7,14.5-26.8,18.4c-3.2,4-6.2,8.6-8.1,13.2c3.6-0.8,7.4-1.1,10.8-2.4c3.8-4.6,30-17.4,31.8-16.6
				c2.1-1.1,5.3-1.1,7.4-2.5c0.7,1.1,0.8,2.6,0.7,3.9c8.8-5.4,18.1-9.4,27.8-12.2C912.6,2241.6,920.9,2241.9,928.8,2241L928.8,2241z
				"/>
			<path id="path3601_1_" class="st7" d="M927.2,2243.4c-6.3-0.7-12.7-1.6-19-2c-6.8-0.4-12.6,0.4-20.2,3
				c-10.5,3.6-17.1,12.6-20.6,22.1c-2.2,6-2,14.9-0.6,20c1.2-2.6,14.7-11.6,16.2-10c-0.5-2.8,42-31,44.3-31.6
				C927.3,2244.5,927.3,2243.9,927.2,2243.4L927.2,2243.4z"/>
			<path id="path3591_1_" class="st7" d="M928.4,2239.1c5.9-7.4,16.8-20.9,27.5-25.1c11.4-4.5,24.4-4.7,29.4-3.4
				c-2.2,0.7-3.2,6.4-5.1,6c1.1,1.5,2.9,2,4,3.7c-2.1,0.1-2.9,1.2-5.2,1.4c1.4,1.7,3.6,2.7,4.8,4.7c-2-0.3-3.7,0.5-5.6,0.1
				c0.7,1.8-3.8,6.2-4.1,8.4c-2.1-2.2-4.1-3.2-5.8-5.3c0.2,1.6-0.7,3-0.6,4.6c-1.1-2.2-2.8,1.3-2.2,4.8c-1.1-2.6-3-2.5-3,0.3
				c-2-2.8-4.3-2.5-4.2,0.4c-0.7-1.9-5.2-4.1-5,0.7c-0.8-3.5-20.7-1.7-22.3-1.1L928.4,2239.1z"/>
			<path id="path3593_1_" class="st7" d="M1003.2,2216.7c-3.2-0.5-15.6-1.1-25.9,0.1c-5.7,0.7-17.8,4.4-23,6.8
				c-8.6,4.1-15.7,8.9-23.9,13.9l6.9,1.5c6.7-1.6,14.2,1.4,21.1,0.7c4.8-0.5,9.1-4.4,14.2-4.4c0.3-2.4,26-12.1,27.7-12
				C1001.7,2221.4,1001.5,2219.6,1003.2,2216.7L1003.2,2216.7z"/>
			<path id="path3589_1_" class="st7" d="M948.9,2248.1c13,5.4,20.7,8.1,33.2,14.5c5.5,2.8,20.9,12.9,25.4,17.3
				c6.8,6.7,10.6,11.3,14.9,19.2c0.7,2.1,0.9,4.3,0.7,6.5c-0.6-1-45.3-26.6-46.2-26c-0.5-1.1-1.1-2.2-1.6-3.3c-1,0.8-2,1.6-3,2.4
				c-0.3-1.9-0.6-3.9-0.9-5.8c-0.8,1.1-1,2.2-1.1,3.3c-1.3-1.4-2.6-2.7-3.9-4.1c-0.4,0.4-0.8,0.8-1.2,1.2c-0.7-1.7-1.2-3.4-2.2-4.2
				c-1.6-3.5-10.7-14.6-13.9-17.1L948.9,2248.1z"/>
			<path id="path3597_1_" class="st7" d="M932.1,2244c5.5,11,11.5,17.2,20.3,26.1c6.8,6.8,15.3,16.2,21.2,26.1
				c4.1,6.7-1.9,34.9-2.2,37.9c-1.4-3.9-20-22.2-19.9-26.4c-1.5,0.7-2.8,0.2-4.3,0.3c-0.1-1.9-0.9-3.6-1.1-5.9
				c-1,0.8-1.9,1.6-2.9,2.3c-0.7-2.8-1.7-5.5-2.2-8.4c-1.3-1.4-2.7-2.8-4-4.2c-0.6-4.5-3-9.4-4-14.1c2-3.4,2-21-3.3-31.6
				C930.5,2245.4,931.3,2244.7,932.1,2244z"/>
			<path id="path3145_1_" class="st8" d="M934.3,2267.6c1.4,4.9,2.9,9.9,6.2,14.3c-0.2,2.9-0.3,4.2-0.1,7.2c1.7,1.4,3.4,3.5,5.2,5.5
				c1.4,2.9,3.2,6.9,6.5,9c-0.2,1.9-0.2,3.6-0.5,5.5c0-0.6-0.1-1-0.1-1.6c-0.7,0.4-3.3,0.6-4.3-0.1l-12.2-16.8
				C934.8,2282.9,934.3,2275.3,934.3,2267.6z"/>
			<path id="path3874_1_" class="st7" d="M934.2,2253c2.9,6.2,4.2,13.6,7.5,19.6c6,11.1,12.8,21.9,19.2,32.8
				c-6.2-11.1-12.5-22.1-18.6-33.2C939.1,2266.2,937.2,2259.1,934.2,2253z"/>
			<path id="path2402_1_" class="st7" d="M937.5,2253.1c0.5,2.3,0.8,4.3,1.1,6.6c0.8-0.4,1.5-0.9,2.3-1.4c0.3,2,0.7,4,0.7,6
				c0.5-0.8,1.1-1.7,1.6-2.5c0.5,1.9,0.9,3.7,1.1,5.7c0.5-0.3,0.9-0.7,1.4-1c0.2,1.1-0.3,2.8-0.3,3.9c0.4,0,0.7-0.4,1.1-0.4
				c0.7,2,1.3,4.5,2.5,6.3c1.8,0.5,2,0.8,4,2.1c0.2,2.9,1.3,6.8,1.8,9.4c1.7,0.4,1.9,1,3.6,1.4c0.4,3.3,3,7.6,3.2,11.1
				c1.2,0.2,3.5,1.1,4.5,0.1c0.9,0.2,2.2,1,2.9,1.2c-0.1,2.8,11.8,9,12.1,4.8c-7.1-11-14.2-22-21.3-33c-4.6-3.1-9.1-6.5-13.7-9.6
				l-1.8-1.8l-0.7-9.7l-6-6l-3.9-2.4l0.1,3.3l1.6,2.7c0,2.1,0.2,4.8,0,6.9C936.1,2255.3,936.8,2254.6,937.5,2253.1L937.5,2253.1z"/>
			<path id="path3595_1_" class="st7" d="M938.5,2245.2c11.9,13.4,29.9,20.7,42.9,33.1c-1.5,0.1-1.5,0.8-2.3,1.1
				c4.1,2.5,18.5,20.7,18.1,21.4c1.2,3.6,4.1,11.3,3.2,10.4c-0.3,2.8-7.4,13.2-8.5,13.5c-0.4-1.3-19.1-20-19-24.1
				c-1.4-0.6-2.6-1.6-4.3-1.7c-1.6,1.5-3.3,0.3-4.9,0.5c0.1-2.9-1.3-4.9-2-7.3c-1.7-0.2-3.3-1.3-5-1.9c-1.3-3.8,0.1-10.8-1.3-13.8
				c-2-0.4-2.6-2.1-5.9-2.4c-2-3.3-3.2-7.2-3.4-12.5c-0.2-6.1-6.4-10.5-9.7-15.8L938.5,2245.2z"/>
			<path id="path3139_1_" class="st7" d="M947.7,2257.2c7.9,8,16,15.4,23.3,23.8c6.1,7,11.5,15.2,17,22.6
				c-5.8-7.4-11.2-15-17.4-22.1C963.3,2273.2,955.3,2265.4,947.7,2257.2L947.7,2257.2z"/>
			<path id="path3141_1_" class="st9" d="M954,2255.6l10.7,11.6l-2.5-1.9l1.5,3.8l-3.8-2.5l0.8,5.1l-2.6-2.6l-1.3,3.1l-5.9-7.3
				l-0.6,2.6l-2.3-2.4l-1.3,0.7l-1.2-10.9L954,2255.6z"/>
			<path id="path3573_1_" class="st7" d="M933.2,2238.5l0.2,3.1c0.4,0.3,0.8,0.6,1.2,0.9c0.5,4-0.4,8.5-0.6,12.7
				c0.5-3.6,1-7.2,1.5-10.8c0.9,4.8,0.2,9.3,0.3,14c0.5-3,1.7-5.7,1.6-9c1.5,5.7,1.9,11.4,2.9,17.2c0.6-3.3,1.9-6,2.9-9
				c-0.2,4.7,0.9,8.5,0.4,13.1c1-2.9,3.1-1.7,3,2.1c0.6-3.9,1-7.8,0.7-12.3c0.9,4.5,2.1,8.9,2.7,13.6c0.2-4.5-0.3-9.3-0.5-13.9
				c0.8,5.3,1.8,10.4,3.1,15.5c-0.4-4.6-0.5-8.8-0.3-13.3c1,4.8,2.8,9.4,4.2,14.2c-0.3-3.2-0.5-6.5-0.8-9.7c1.5,3.4,2.6,7,4.4,10.2
				c-0.8-3.3-0.7-6-1.1-9.4c1.4,2.6,3,4.9,4.9,7.1c-1.1-2.8-1.9-5.5-2.4-8.4c1.1,2,2.7,3.1,4,4.7c-1.4-2.1-2.3-4.2-4.2-6.2
				c2,0.7,3.3,2.1,4.9,3.2c-0.1-1.4-0.7-3.9-0.9-5.6c-1.5-1.5-2.6-2.6-4.5-4.5c1.5,1,3,2.3,4.5,2.9c-1.9-2.7-3.5-5.4-5.8-8.1
				c2.2,0.6,4.1,2.5,6.3,2.9c-2.2-2.6-4.3-4.4-7-6.3c1.8,0.7,3.5,0.9,5.2,0.8c-1.8-1.5-3.8-2.7-6.2-3.9c2.2,0.6,4.4,1.1,6.7,1.7
				c-2-1.5-3.1-2.4-5.3-3.1c1.8,0,3.6,0.1,5.4,0.1c-4.4-2.4-11-5.9-18.1-7.3C943.3,2236.8,936.5,2237.9,933.2,2238.5z"/>
			<path id="path3585_1_" class="st7" d="M905.1,2309.2"/>
			<path id="path4081_1_" class="st10" d="M896.1,2379.5c7.3-14.7,15.2-30.5,22.8-43.6c5.5-9.4,8.2-21.1,11-32.2
				c-4,11.1-7,21.6-12.3,31.3c-8.7,15.6-19.9,34.5-28.8,52.1 M888.9,2387.1c-8.5,16.9-17.8,34.1-24.2,51.9c-6.2,17-10,33.6-9.5,52.2
				c0.5-21.1,7.3-38.3,14.6-56.8c7.4-18.9,17.3-36.7,26.4-54.8"/>
			<path id="path3599_1_" class="st7" d="M929.7,2256.8c-0.1,15.8-4.7,38.6-4,54.4c0.4,9.4,2.5,18.7,4.9,27.9
				c1.2,0.9,16.1,15.3,17.7,15.9c-0.5-1.9,5.5-22.2,7-22.3c-1.3-1.7-4.2-26.4-3.8-29c-3.3-1.9-4.9-5.6-6.3-9c-1.5-1.7-3.2-3.8-5.3-5
				c-0.5-2.9,0-4.6,0-7.5c-3.4-5.4-8.1-17.4-8.4-25.2L929.7,2256.8L929.7,2256.8z"/>
			<path id="path3143_1_" class="st7" d="M930.2,2264.7c-1.4,10-3,20.3-2.5,30.4c0.5,12.4,2.9,24.8,5.5,37.2
				c-2.3-12.6-4.4-25-4.9-37.5C927.8,2284.8,929.2,2274.9,930.2,2264.7z"/>
			<path id="path10359_1_" class="st11" d="M929.8,2258.7c-0.3,7.2-1.2,14.5-1.9,21.4c-0.6,5.8-1.2,11.6-1.8,17.3
				c0.7-0.4,1.3-0.9,1.8-1.8c0.9,1.5,1.7,2.6,3.2,3.4c1.2-1.7,2.3-2.9,2.5-5.4c0.2-2.4-2.6-6.7-3.6-10.3c1.3-1.3,1.8-2.2,2.1-4
				c-0.9-1.7-1.5-3.6-2-5.5c1-2.3,2-4.1,3.4-5.9c-1.1-3.6-1.9-7.2-2.2-10.9L929.8,2258.7z"/>
			<path id="path3603_1_" class="st7" d="M925.4,2246.4c-6.3,2-18.2,5.3-23.8,8.6c-14.4,8.6-21.1,14.5-30.8,28
				c-4.6,6.3-1.9,36.5-0.2,38.2c0.3-3.7,0.7-7.4,1-11.1c0.8,3,1.9,5.6,3.5,7.8c-0.3-7.3,1-13.6-0.8-21.8c1.6,4.1,3,5.3,4.8,7.8
				c0.3-2.2,0.1-4.9-0.6-7.1c1.9-0.9,3.3-2.3,4.9-5c1,0.8,2.3,1.2,3.6,1.4c0.3-3.3,1.3-6.6,2.4-9.8c1.3,1.2,2,2.4,3,3.7
				c0.3-2.2,0.5-4.4,0.8-6.7c1.4-0.3,2.8-0.6,4.2-0.8c-0.7-2.1-1.5-4.2-2.2-6.2c2.1,1.1,4,1.6,6.1,1.4c0.5-3.4,1.6-7.2,3.1-10.2
				c1.1,0.6,2.2,1.2,3.3,1.8c-0.2-3.1,2-8.5,4.6-7.9c1.9-1.8,9.5-8.2,12.9-10.3L925.4,2246.4L925.4,2246.4z"/>
			<path id="path3607_1_" class="st7" d="M923.4,2252.2c-10.5,12.3-24.5,26.1-34,39.1c-4,5.6-6.2,12.6-8.8,19.1
				c-1.8,4.6-2.8,9.5-4.2,14.3c1.7,0.9,6.8,0.1,8,0c0.2-1.2,10.8-6.1,11.7-7.1c-0.9-2.6,0.2-8,2.1-9.1c0.1-1.8-1.7-7.2-2.7-9.4
				c1.3,1.4,2.4,2.8,3.3,4.5c3.2-6.1,4.4-10.5,4.5-14.8c1.5-1.8,2.8-2.3,4.8-3.1C911.4,2275.5,916.9,2263.4,923.4,2252.2
				L923.4,2252.2z"/>
			<path id="path3605_1_" class="st7" d="M922.4,2248.1c-9.5,5.9-19.1,12-27.2,19.7c-8.2,7.7-16.1,16.6-21.5,26.5
				c-4,7.1-4.3,27.7-3.1,29.3c1.3-0.6,6.4-3.6,8-4.1c0.5-3.8,8.5-24.5,9.5-24.4c9.2-16.1,24.2-27.7,38.4-41.5
				C926.4,2252.9,922.6,2248.9,922.4,2248.1z"/>
			<path id="path3583_1_" class="st7" d="M926,2244.3c-1.7,2-4,5.6-5.1,8.8c-2.2,6.7-4,16.1-3.3,24c0.7,8.2,1.8,13.5,4,21.5
				c1.3-2.5,6.7-7.9,5.8-10.1c-0.9-2.4-1.7-9.2-1.1-11c-1-1.3-1.4-8.3,0.1-9.8c0-1.2,0-2.4,0-3.6c-0.4-1.6-1.4-3-2.1-4.4
				c1,1.3,1.9,2.6,2.9,4c1.9-2.1,3.9-4.3,3.9-5.7c0.9,0.2,3.5-0.3,4.4-0.1c-1.2-3-5.5-7.2-7-12.1L926,2244.3z"/>
			<path id="path4083_1_" class="st7" d="M845.3,2488.7c4.9-20.2,11.3-41.2,19-60.8c5.6-14.3,32.6-63.4,41-77.3
				c-7.5,14.4-34.4,64.9-40.2,79.8C857.7,2449.4,851.3,2468.8,845.3,2488.7z"/>
			<path id="path3205_1_" class="st7" d="M923.4,2236.8c-7.3-7-15.2-13.8-24-19.4c4.9,4.2,9.2,7,13.8,11.2
				C916.1,2231.2,920.2,2234.6,923.4,2236.8z"/>
			<path id="path4090_1_" class="st7" d="M927.3,2237.3c2.9-6.1,5.5-12.5,8.8-18.4c3.2-5.7,7.2-10.9,10.8-16.4
				c-3.3,5.4-6.8,10.6-10,16.1C933.6,2224.7,930.6,2231.1,927.3,2237.3z"/>
			<path id="path3804_1_" class="st7" d="M939,2241.9c2,1.4,4.3,2.5,6.1,4.2c1.9,1.8,3.2,4.3,4.8,6.5c-1.6-2.5-2.7-5.4-4.7-7.4
				C943.6,2243.6,941.1,2243,939,2241.9z"/>
			<path id="path3814_1_" class="st7" d="M929.9,2243.8l1.9-1.4l3.2-0.3l-2.6-1.1l-1.4-1.6l-0.9,2.3L929.9,2243.8z"/>
			<path id="path3816_1_" class="st7" d="M929.1,2244.4l-0.9,2.4l1.6,1.7l-3,1.2l-1.7-3.6L929.1,2244.4z"/>
			<path id="path3818_1_" class="st7" d="M931.2,2245.6l2.5,3.8l-1.3,0l0.3,2l-2.7,1.9l0-3.7L931.2,2245.6L931.2,2245.6z"/>
			<path id="path3820_1_" class="st7" d="M932.2,2243.8l2.4-2.3l0,1.2l2-0.4l1.7,1.8l-2.2-1.1l0.8,2l-2-1L932.2,2243.8z"/>
			<path id="path3301_1_" class="st7" d="M929.6,2242.3l0.6-4.4l1.5-3.5l-1.3-0.3l-1.5-3.4l0.7-1.6l-2.5-2l-1.8,4.9l-1,0.4l-0.6,2.9
				l2.5,3.1l2.4,4.3L929.6,2242.3z"/>
			<path id="path3303_1_" class="st7" d="M929,2243.1l-0.3-4.1l-2.1-2.2l-1.1,1.7l2,1.6l0.8,3.9L929,2243.1z"/>
			<path id="path3822_1_" class="st7" d="M930.4,2243.9l-4-1.5l-1.4-1.9l3.1,0.8l1-0.7L930.4,2243.9z"/>
			<path id="path3824_1_" class="st7" d="M931.5,2244.2l2,0.9l0.4,3l-2.8-0.7l-1.1-2.9L931.5,2244.2z"/>
			<path id="path3305_1_" class="st7" d="M927.4,2244.1l-2.8-1.7l-1.8,0.7l-0.7-0.6l-1.8,1.8l2.2,1.4l5.8-0.5L927.4,2244.1z"/>
			<path id="path5087_1_" class="st7" d="M929.5,2243.6l-1.7,0.2l0.6,1.8l0.9,1.5l0.7-1.9l0.5-0.4L929.5,2243.6z"/>
		</g>
		<g>
			<rect id="svg_106_1_" x="1938.4" y="2517.6" class="st7" width="0" height="1.8"/>
			<g id="svg_107_1_" transform="rotate(57.882 526 129)">
				<path id="svg_108_1_" class="st7" d="M3005.2,164.7c11.4,6.6,17.7,15.2,30.5,18.4c10.3,2.6,22,1.4,32.8-1.3
					c3-0.8,11-3.6,14.2-5.4c-1.6,0.3-5.1-12.7-8-11c-1.3-1.2-16.7,1.4-23.5,4.7C3035.1,172.6,3024.1,167.5,3005.2,164.7
					L3005.2,164.7L3005.2,164.7z"/>
				<path id="svg_109_1_" class="st7" d="M3230.3,193.5c2.8,5,4.1,7.6,6.3,14.4c-9-2.1-17.5-3.1-26.4-4c-20.3-2-42.9-7.4-62.7-14.7
					c-21.7-8.1-42.2-17.1-62.7-25.4c-12.9-5.3-28.6-6-43.1-6.5c-5.7-0.2-12.4,1.9-17.8,4.4c-2.8,1.3-4.5,4.8-6.8,7.1
					c-2.7-1-5.3-2.1-8-3.1c0.1-4.6,0.3-9.2,0.4-13.8c6.8,0.2,13.5,0.9,20.4,0.7c4.1-0.1,8.4-2.2,12.4-1.9
					c11.4,0.7,23.4,0.9,34.1,3.8c12.5,3.3,23.9,9.2,35.9,13.4c7,2.4,13.9,4.8,20.8,7.4c14.6,5.5,28.8,10.2,43.5,14.2
					C3194.3,194.2,3213.5,196.9,3230.3,193.5z"/>
				<path id="svg_110_1_" class="st7" d="M3178.2,198.1c-1.1-0.7,0.9-6.9,2.6-6.9c3.9,0.9,7.7,1.7,11.5,2.6
					c-1.6-0.1-3.6,6.1-1.8,6.7C3186.5,199.7,3182.3,198.9,3178.2,198.1z"/>
				<path id="svg_111_1_" class="st7" d="M3136.2,184.6c-1.9-0.7,0.6-7.3,3.4-6.6c3.1,0.9,6.2,2.1,9.2,3.2c-1.9-0.3-5.6,5.5-3.9,6.6
					C3141.9,186.6,3139.2,185.8,3136.2,184.6z"/>
				<path id="svg_112_1_" class="st7" d="M3164.9,186.5c-1.7-0.3-4.9,6.6-3.3,7.1c4.9,1.4,9.9,2.9,14.8,4.2
					c-1.1-0.4,1.4-7.3,2.9-7.1C3174.5,189.4,3169.8,187.4,3164.9,186.5z"/>
				<path id="svg_113_1_" class="st7" d="M3134.6,183.8c-1.7-0.9,1.7-6.9,3-6.5c-2.2-1.1-5.7-2.4-8.8-3.4c-1.5-0.4-4.5,5.8-3.5,6.3
					C3128.4,181.4,3131.4,182.6,3134.6,183.8z"/>
				<path id="svg_114_1_" class="st7" d="M3123.6,179.4c-0.8-0.9,2-6,3.4-6c-3-0.9-5.6-2.1-8.6-3.1c-1.1,0-3.6,5.3-2.6,5.9
					C3118.4,177.3,3120.9,178.3,3123.6,179.4z"/>
				<path id="svg_115_1_" class="st7" d="M3116.2,169.5c-0.9-0.1-3.2,5.1-2.5,5.7c-2.5-0.9-4.9-2-7.4-2.9c-1-0.8,1.4-5.6,2.1-5.7
					C3111,167.5,3113.5,168.6,3116.2,169.5z"/>
				<path id="svg_116_1_" class="st7" d="M3018.6,164.1c5-2.9,13.3-6.2,19.2-6.9c3.2-0.4,21.2,0.6,28.7,1.7l-27.9-9.2l-25.9,7.6
					L3018.6,164.1L3018.6,164.1z"/>
				<path id="svg_117_1_" class="st7" d="M2989.6,166l-1.3-12.6l11.1-6.4l14.9-3.3l10,6.6c-5.6,4.9-2.3,10.8-7.3,15.2l-8.8,5.4
					l-7.7,8.4l-5.3-1.9L2989.6,166z"/>
				<path id="svg_118_1_" class="st7" d="M2993.4,150.9c-1.5-7.8-2.8-15.7-4.5-23.5c-3.1-14.1-3.8-27.6-0.9-38.5
					c2.1-8.1,7.8-20.1,9.3-21.8c2.5-1.8,8.5,3.7,8.5,3.7c-3,2.7-3,57.6-0.4,57.9c-2.2,1.5-7.2,6.8-8.4,9.3
					c-0.2,2.9-1.7,10.1-2.2,11.5L2993.4,150.9L2993.4,150.9z"/>
				<path id="svg_119_1_" class="st7" d="M2992.2,161.8c-3.1,0.9-24.3,26.7-26.6,29.1c0.4,3.2,9.9,13.6,15,14.5
					c-0.5-1.5,10.2-19.4,11.9-20c0.4-2.8,1.6-5.8,1.4-8.4c1.9-1.9,1.4-3.9,3.4-5.7c-0.2-2.7-4.1-2.8-3.9-5l4.2-3.9l-2.7-3.8
					L2992.2,161.8z"/>
				<path id="svg_120_1_" class="st7" d="M2995,160.3c-3.9-0.3-8.3-5.3-12.2-5.6c-0.2-2.1-3.4-5.2-2.1-6.4c-2.2-0.6-3.7-3-5.3-3.6
					c0,0-3,0.9-2.7-1.6c-2.4-1.9-21-8.5-21.9-9.4c-1,0.6-1.9,1.2-2.9,2.1c-0.3,0.9,4.1,16.6,9.1,19c1.1-0.5,23.2,8,26.8,10.1
					c3.4-0.7,3.9-0.1,7.3-0.8L2995,160.3z"/>
				<path id="svg_121_1_" class="st7" d="M2994.9,160.8c-0.2,10.9-1.9,21.4-1.6,32.3c0.2,10.1,1.8,20.9,4.7,30.1
					c2.8,9,14.2,20.1,17.9,22.4c3.8,2.4,8.2,4.6,12.5,5.8c-0.9-3.2-1.2-6.8-2.6-9.8c-4.3-2.9-24.7-50.6-27.6-59.1
					C2995.9,175.8,2996,168,2994.9,160.8L2994.9,160.8z"/>
				<path id="svg_122_1_" class="st7" d="M2997.2,162c-0.4,6-1,12-1.2,17.9c-0.1,6.4,0.8,11.6,3.5,18.3c3.7,9.3,12.2,14.2,21.1,16.2
					c5.6,1.3,13.8-0.1,18.5-2.1c-2.5-0.7-11.2-12.1-9.8-13.7c-2.6,0.8-5.1-0.9-3.8-2.6c-3.5,0.9-6.3-1.8-3.7-3.5
					c-4.1-1.2-9.3-2.1-7.5-3.4c-1.3-1.7-2.6-2.8-5-4c0.2-0.9,0.5-1.7,0.7-2.6c-1.7-1.2-4.3-4.4-4.1-7c-0.7-1.2-1.1-2-1.9-2.6
					c-1.6,1.6-2,1.2-3.8,2.6c1.2-2.6,1.5-2.1,1.7-4.2c-0.6-2.1-2.8-7.5-3.4-9.6C2998.1,161.7,2997.6,161.8,2997.2,162L2997.2,162z"
					/>
				<path id="svg_123_1_" class="st7" d="M2993.1,161.4c-7.1-4.5-19.9-12.8-24.2-22.2c-4.6-10-5.2-22.1-4.1-26.9
					c0.7,2,7.5,0.9,9-0.3c0.1,2,3.9,0.9,5.6-0.5c-0.2,1.9,0.6,3.3,0.3,5.2c1.7-0.9,5.1,6.9,3.2,8.8c1.5-0.4,0.9,3.6-0.9,4.9
					c3.4-0.9,5.1-0.5,3,1.5c2.4-1.2,4,3.3,2.2,4.2c1.4-0.1,2.9,8.7,2.2,10.1c0.1,0.9,3.1,11.1,3.7,12.5L2993.1,161.4z"/>
				<path id="svg_124_1_" class="st7" d="M2969.9,95c-0.4,3-0.5,14.6,1,24.1c0.8,5.2,4.6,16,7.1,20.4c4.1,7.4,8.8,13.4,13.7,20.3
					l1.1-6.6c-1.7-6-2.6-11-3.5-17.4c-0.6-4.4-13.1-37.5-13.1-39.1C2974.3,95.7,2972.6,96.1,2969.9,95L2969.9,95z"/>
				<path id="svg_125_1_" class="st7" d="M3000.7,141.2c4.6-12.8,6.8-20.3,12.3-32.7c2.4-5.5,11.2-21.1,15.2-25.9
					c6-7.2,10.1-11.4,17.2-16.4c1.9-0.9,3.9-1.4,6-1.5c-0.9,0.7-18.2,37.1-15.1,37c-1.4,0.4-3.7,2.9-3.2,3.7
					c-3.1,0.2-4.8,4.9-4.3,5.6c-1,0.6-2,1.3-3,1.9c0.8,0.8,1.5,1.7,2.3,2.5c-1.8,0.5-3.6,1.1-5.3,1.6c1.1,0.6,2,0.6,3.1,0.6
					c-1.2,1.4-2.4,2.8-3.6,4.1c0.4,0.3,0.8,0.6,1.2,0.9c-1.5,0.9-3.1,1.6-3.8,2.6c-3.2,2-13.1,11.8-15.3,15.1L3000.7,141.2z"/>
				<path id="svg_126_1_" class="st7" d="M2997.5,157.3c10-6.6,15.5-12.9,23.4-22.4c6.1-7.2,14.5-16.4,23.4-23.2
					c6.1-4.7,24.1-6.6,23.3-5.9c0.8,0,8.8,6.9,10.5,7.7c-3.1,0.8-18.5,16.7-22.4,17.2c0.7,1.3,0.3,2.6,0.4,3.9
					c-1.8,0.4-3.3,1.3-5.4,1.8c0.8,0.8,1.5,1.6,2.2,2.4c-2.6,1.1-5,2.3-7.7,3.2c-1.2,1.4-2.5,2.9-3.7,4.3c-4.2,1.1-8.6,4.1-12.9,5.6
					c-3.2-1.4-19.5,1-29.1,7.3C2998.8,158.6,2998.2,158,2997.5,157.3L2997.5,157.3z"/>
				<path id="svg_127_1_" class="st8" d="M3019.3,152.2c4.5-1.9,9-4,13-7.6c2.7-0.2,3.9-0.3,6.7-0.9c1.2-1.8,3.1-3.6,4.9-5.6
					c2.7-1.7,6.3-3.9,8.1-7.2c1.8-0.1,3.3-0.2,5.1-0.3c-0.5,0.1-0.9,0.2-1.4,0.3c0.4,0.6,0.6,3,0,4.1l-15.1,13.5
					C3033.4,149.6,3026.4,151.1,3019.3,152.2z"/>
				<path id="svg_128_1_" class="st7" d="M3005.8,154.2c5.7-3.5,12.4-5.8,17.9-9.6c10.1-7.1,19.8-14.8,29.7-22.2
					c-10,7.2-20,14.6-30.1,21.7C3017.9,147.9,3011.3,150.5,3005.8,154.2L3005.8,154.2L3005.8,154.2z"/>
				<path id="svg_129_1_" class="st7" d="M3005.7,151.1c2.1-0.8,3.9-1.3,6.1-1.9c-0.4-0.6-0.9-1.3-1.3-1.9c1.8-0.6,3.6-1.1,5.6-1.5
					c-0.8-0.4-1.6-0.8-2.4-1.2c1.7-0.7,3.4-1.3,5.3-1.8c-0.3-0.4-0.7-0.8-1-1.2c1-0.4,2.6-0.1,3.6-0.2c0-0.3-0.4-0.6-0.4-0.9
					c1.8-0.9,4.1-1.8,5.8-3.2c0.4-1.7,0.7-2,1.8-4c2.7-0.6,6.2-2.1,8.6-2.9c0.3-1.6,0.9-1.9,1.2-3.5c3-0.8,7-3.8,10.1-4.4
					c0.1-1.1,0.9-3.4-0.1-4.2c0.2-0.8,0.8-2.2,1-2.8c2.6-0.3,10.6-5.6,14.1-7c-0.4-0.4-29.9,11.2-39.9,19.3c-2.8,4.7-5.7,9.3-8.5,14
					l-1.6,1.9l-9,1.9l-5.4,6.4l-2.1,4l3.1-0.5l2.4-1.8c1.9-0.3,4.4-0.9,6.3-0.9C3007.8,152.1,3007.2,151.5,3005.7,151.1z"/>
				<path id="svg_130_1_" class="st7" d="M2998.4,151.2c12-12.8,30-42.9,30.3-42.3c2.1-4.2,18.6-19.9,19.2-19.6
					c3.3-1.6,10.3-5.3,9.5-4.3c2.6-0.1,9.4,4.5,11.5,3.8c1,0.8-0.3,5,0,5.9c-0.9,1.1-9.6,9.8-12.2,12.2c0.8,0.4,1.7,0.7,2.5,1.1
					c-3.6,1.3-6.9,3.5-10.7,3.9c-0.5,1.4-1.4,2.6-1.4,4.2c1.5,1.3,0.4,3,0.6,4.5c-2.7,0.3-4.5,1.9-6.7,2.8c-0.2,1.6-1.1,3.2-1.6,4.9
					c-3.5,1.7-9.9,1.4-12.8,3.1c-0.3,1.9-1.8,2.7-2,5.8c-3,2.3-6.6,3.9-11.4,4.8c-5.6,1-9.5,7.4-14.3,11.1L2998.4,151.2
					L2998.4,151.2z"/>
				<path id="svg_131_1_" class="st7" d="M3009.2,141.1c7.1-8.4,13.7-16.9,21.2-24.8c6.3-6.6,13.6-12.6,20.4-18.8
					c-6.6,6.3-13.5,12.4-19.9,19.1C3023.4,124.4,3016.5,132.9,3009.2,141.1L3009.2,141.1z"/>
				<path id="svg_132_1_" class="st9" d="M3007.5,135.4l10.3-11.5l-1.7,2.6l3.4-1.9l-2.2,3.8l4.6-1.4l-2.4,2.8l2.9,0.8l-6.5,6.4
					l2.4,0.2l-2.2,2.5l0.7,1.1l-10.1,2.5L3007.5,135.4z"/>
				<path id="svg_133_1_" class="st7" d="M2992.4,157.1l2.9-0.6c0.3-0.4,0.5-0.8,0.8-1.2c3.7-1,7.9-0.8,11.8-1.1
					c-3.4,0-6.7,0-10.1,0c4.4-1.5,8.6-1.4,12.9-2.2c-2.8-0.1-5.3-0.8-8.4-0.3c5.2-2.2,10.5-3.3,15.8-4.9c-3.1-0.1-5.6-1-8.4-1.5
					c4.4-0.4,7.8-2,12.1-2.1c-2.7-0.6-5.7-1-9-0.8c3.6-0.8,7.4-1.9,10.9-2.3c-3.6,0-7.3,0.2-11.4,1c4.1-1.4,8.2-3.1,12.5-4.4
					c-4.2,0.4-8.6,1.6-12.9,2.3c4.8-1.4,9.5-3,14.2-4.9c-4.3,1-8.1,1.6-12.3,2c4.4-1.6,8.6-3.9,12.9-5.8c-3,0.7-6,1.4-9,2
					c3.1-1.8,6.4-3.3,9.3-5.5c-3,1.2-5.5,1.5-8.6,2.3c2.4-1.7,4.4-3.4,6.4-5.5c-2.5,1.4-5.1,2.5-7.7,3.4c1.8-1.3,2.8-2.9,4.2-4.3
					c-1.9,1.6-3.8,2.7-5.6,4.7c0.6-2,1.9-3.3,2.8-5c-1.3,0.3-3.6,1.1-5.1,1.6c-1.3,1.6-2.3,2.7-4,4.8c0.8-1.5,2-3.1,2.5-4.6
					c-2.4,2.1-4.9,3.9-7.3,6.4c0.5-2.1,2.2-4.1,2.5-6.2c-2.4,2.4-4,4.6-5.6,7.3c0.6-1.7,0.8-3.4,0.6-5c-1.3,1.8-2.4,3.8-3.4,6.3
					c0.4-2.1-0.8-3.2-1.4-1.1c0-1.7-0.1-3.3-0.1-5c-2.1,4.4-5.1,11-6.1,17.8C2990.5,147.9,2991.7,154,2992.4,157.1z"/>
				<path id="svg_134_1_" class="st7" d="M3005.1,166.1c6.2,3.1,11.3,8.7,17.8,10.1c10.9,2.4,25.5,1.1,35.7-2.4
					c5.7-1.9,11.5-4.5,16.8-7.7c-0.9-0.3-3,0.8-5.4,0.9c1.8-1.6,2.8-3.6,2.9-4.5c-5.6,0.4-11.1,1.1-16.9,2.8
					c-5.7,3.3-12.2,5.3-18.3,7.9c1.4-2.4,0.2-4.3-2.8-1.9c2-2.4-0.8-6-3.7-4c0.6-1.4,0.7-2.3,0.5-3.8c-4.4,1.3-8.4,3-12.2,5.5
					c-0.2-0.9-0.4-1.8-0.6-2.6C3014.7,167.2,3009.7,167.1,3005.1,166.1L3005.1,166.1L3005.1,166.1L3005.1,166.1z"/>
				<path id="svg_135_1_" class="st10" d="M3124.1,172.8c-13.8-4.9-28.7-10.1-41.1-15.4c-8.9-3.9-19.8-4.8-30.1-6
					c10.4,2.2,20.2,3.6,29.3,7.3c14.8,5.9,32.6,13.9,49.2,19.8 M3131.4,178.4c15.9,5.6,32.1,12,48.8,15.6c16,3.5,31.4,4.8,48.6,1.9
					c-19.5,2.3-35.7-1.7-53.1-6c-17.8-4.4-34.6-11.2-51.6-17.2"/>
				<path id="svg_136_1_" class="st7" d="M3009.4,157.9c14.6-2,35.9-0.7,50.4-3.5c8.6-1.6,34.7-17.4,36.4-18c0-1.3-0.2-8.4-1.4-8.5
					c0.3-0.8,0.4-1.8,0-2.7c-1.5,0.7-26.6,3-28.9,4.8c-1.2-0.4-5.5,0.9-6.6,1.6c-2.4-0.1-4.9-0.1-7.3-0.2c-1.7,3.3-5,5.3-8.1,7.1
					c-1.5,1.6-3.4,3.5-4.5,5.6c-2.7,0.8-4.3,0.7-6.9,1c-4.9,3.9-15.8,9.8-23,11.1L3009.4,157.9L3009.4,157.9z"/>
				<path id="svg_137_1_" class="st7" d="M3016.7,156.4c9.3,0,18.9,0,28.2-1.7c11.5-2.2,22.9-6,34.2-10c-11.6,3.8-23,7.4-34.5,9.5
					C3035.4,155.9,3026.2,155.9,3016.7,156.4z"/>
				<path id="svg_138_1_" class="st11" d="M3011.2,157.6c6.7-0.7,13.5-0.8,19.8-1.1c5.3-0.2,10.7-0.4,16.1-0.7
					c-0.4-0.6-0.9-1.1-1.7-1.4c1.3-1.1,2.4-2,3-3.4c-1.6-0.9-2.8-1.8-5.1-1.6c-2.2,0.2-6.1,3.3-9.4,4.7c-1.2-1-2.1-1.4-3.8-1.4
					c-1.5,1.1-3.3,1.9-5,2.6c-2.2-0.6-3.8-1.3-5.6-2.4c-3.3,1.5-6.6,2.7-10,3.5L3011.2,157.6z"/>
				<path id="svg_139_1_" class="st7" d="M2999.9,163.3c2.1,5.6,5.5,16.2,8.8,21c8.4,12.2,14.1,17.6,26.9,24.9
					c6,3.4,33.8-3.1,35.4-4.9c-3.4,0.2-6.9,0.4-10.3,0.5c2.8-1.2,5.1-2.5,7.1-4.3c-6.7,1.2-12.6,0.9-20.1,3.7c3.8-2,4.8-3.5,7.1-5.5
					c-2.1,0-4.5,0.6-6.5,1.5c-0.9-1.7-2.2-2.8-4.8-3.9c0.7-1.1,1-2.3,1.2-3.5c-3.1,0.2-6.2-0.3-9.1-0.9c1.1-1.4,2.1-2.2,3.3-3.2
					c-2.1,0-4.1,0.1-6.2,0.1c-0.3-1.2-0.6-2.5-0.9-3.8c-1.9,1-3.8,1.9-5.7,2.9c0.9-2.1,1.3-3.9,1.1-5.9c-3.2,0-6.8-0.5-9.6-1.5
					c0.5-1.1,1-2.2,1.5-3.3c-2.8,0.6-8-0.8-7.5-3.2c-1.7-1.6-7.9-7.7-10-10.6L2999.9,163.3z"/>
				<path id="svg_140_1_" class="st7" d="M3005.4,164.3c11.7,8.1,24.9,19.3,37.4,26.3c5.3,3,11.9,4.1,18,5.6
					c4.3,1.1,8.9,1.4,13.4,2.1c0.8-1.7-6.2-16.7-7.2-17.3c-2.4,1.2-7.4,0.9-8.5-0.7c-1.7,0.1-6.6,2.5-8.6,3.7
					c1.2-1.4,2.5-2.6,4.1-3.6c-5.8-2.1-9.9-2.7-13.9-2.2c-1.7-1.1-2.2-2.3-3-4C3027.3,172.4,3015.9,168.9,3005.4,164.3L3005.4,164.3
					z"/>
				<path id="svg_141_1_" class="st7" d="M3001.7,165.8c5.8,8,11.8,16.1,19.1,22.6c7.4,6.5,15.9,12.7,25.2,16.5
					c6.7,2.7,15.5,3.3,22.9,2.9c1.4-1.3,2.9-2.7,4.4-4c-0.6-1.1-16.5-13.1-17.9-14c-2,0.5-26.1-32.7-39.4-44
					C3015.3,146.1,3002.4,165.5,3001.7,165.8z"/>
				<path id="svg_142_1_" class="st7" d="M2998,162.9c1.9,1.3,5.3,3,8.3,3.5c6.3,1.1,15.1,1.6,22.3-0.1c7.6-1.8,12.4-3.4,19.8-6.6
					c-2.3-0.9-7.5-5.2-9.5-4.1c-2.1,1.2-8.4,2.8-10.1,2.5c-1.2,1.1-2.2,2.3-3.9,3.6c-2.1-0.2-3.7-1.2-5.1-2.5
					c-1.1,0.2-2.2,0.3-3.4,0.5c-1.4,0.6-2.7,1.7-4,2.5c1.2-1.1,2.3-2.1,3.6-3.2c-2.1-1.4-4.1-3.1-5.4-2.8c0.2-0.8-0.4-3.2-0.2-4
					c-2.8,1.5-6.5,6.1-10.9,8.1L2998,162.9z"/>
				<path id="svg_143_1_" class="st7" d="M3226.7,205.3c-18.8-1.9-38.5-5.1-56.9-9.5c-13.4-3.3-59.8-21.8-72.9-27.8
					c13.6,5,61.2,23.3,75.2,26.7C3190,199.1,3208.2,202.4,3226.7,205.3z"/>
				<path id="svg_144_1_" class="st7" d="M2991.1,166.4c-6.2,7.7-12.2,15.9-17.1,24.8c3.7-5.1,6.2-9.4,9.9-14.3
					C2986.2,173.9,2989.2,169.6,2991.1,166.4z"/>
				<path id="svg_145_1_" class="st7" d="M2991.4,162.7c-5.8-1.9-11.8-3.4-17.3-5.7c-5.4-2.2-10.3-5.3-15.5-7.9
					c5.1,2.4,10.1,4.9,15.2,7.1C2979.6,158.5,2985.6,160.5,2991.4,162.7z"/>
				<path id="svg_146_1_" class="st7" d="M2995.3,151.2c1.2-2.1,2.2-4.4,3.7-6.2c1.6-2,3.9-3.6,5.8-5.3c-2.2,1.8-4.9,3.2-6.7,5.3
					C2996.7,146.8,2996.3,149.2,2995.3,151.2z"/>
				<path id="svg_147_1_" class="st7" d="M2997.4,159.4l-1.4-1.6l-0.4-2.9l-1,2.6l-1.4,1.5l2.1,0.6L2997.4,159.4z"/>
				<path id="svg_148_1_" class="st7" d="M2998,160.1l2.3,0.5l1.5-1.8l1.3,2.6l-3.2,2.1L2998,160.1z"/>
				<path id="svg_149_1_" class="st7" d="M2999,158l3.4-2.8l0,1.2l1.8-0.5l1.8,2.3l-3.4,0.4L2999,158L2999,158z"/>
				<path id="svg_150_1_" class="st7" d="M2997.3,157.3l-2.2-1.9l1.1-0.1l-0.4-1.8l1.6-1.8l-0.9,2.2l1.8-1l-0.9,2L2997.3,157.3z"/>
				<path id="svg_151_1_" class="st7" d="M2996,159.9l-4.1,0l-3.3-0.9l-0.2,1.2l-3.1,1.8l-1.5-0.4l-1.8,2.6l4.9,1.9l2.7,0.2l2.7-2.7
					l3.9-2.8L2996,159.9L2996,159.9z"/>
				<path id="svg_152_1_" class="st7" d="M2996.8,160.3l-3.8,0.8l-1.9,2.3l1.6,0.8l1.4-2.1l3.6-1.3L2996.8,160.3z"/>
				<path id="svg_153_1_" class="st7" d="M2997.5,158.9l-1.2,3.9l-1.7,1.6l0.6-3l-0.7-0.9L2997.5,158.9z"/>
				<path id="svg_154_1_" class="st7" d="M2997.7,157.9l0.7-1.9l2.8-0.7l-0.6,2.7l-2.6,1.4L2997.7,157.9z"/>
				<path id="svg_155_1_" class="st7" d="M2997.7,161.7l-1.5,2.8l0.7,1.6l-0.5,0.7l1.7,1.4l1.2-2.2l-0.7-5.3L2997.7,161.7z"/>
				<path id="svg_156_1_" class="st7" d="M2997.2,159.9l0.3,1.5l1.6-0.8l1.4-1.1l-1.7-0.4l-0.4-0.4L2997.2,159.9z"/>
			</g>
		</g>
		<polygon class="st7" points="779.3,2462 716.3,2462 716.3,2334.9 779.3,2323.7 		"/>
		<polygon class="st7" points="806.5,2462 779.3,2462 779.3,2323.7 806.5,2334.9 		"/>
		<polygon class="st7" points="882.5,2448.3 776.9,2448.3 776.9,2405.7 834.8,2401.8 882.5,2413.7 		"/>
		<rect x="843.2" y="2405.7" class="st7" width="79.8" height="49.9"/>
		<rect x="914.5" y="2411.6" class="st7" width="73.5" height="36.7"/>
		<rect x="960.9" y="2403.8" class="st7" width="62.2" height="26.9"/>
		<rect x="655.7" y="2411.6" class="st7" width="28.7" height="21.5"/>
		<rect x="676.5" y="2418.6" class="st7" width="26.2" height="12.1"/>
		<rect x="699" y="2414.8" class="st7" width="29.9" height="23.5"/>
		<polygon class="st7" points="1059.2,2438.3 1012.6,2438.3 1012.6,2380.4 1059.2,2377.6 		"/>
		<polygon class="st7" points="1066.6,2444.3 1059.2,2444.3 1059.2,2377.6 1066.6,2393.9 		"/>
		<rect x="1047.2" y="2401.8" class="st7" width="33" height="31.3"/>
		<path class="st7" d="M940.4,2414.2c0,6.8-9.1,12.4-20.3,12.4c-11.2,0-20.3-5.5-20.3-12.4s9.1-12.4,20.3-12.4
			C931.3,2401.8,940.4,2407.4,940.4,2414.2z"/>
		<path class="st7" d="M1116.4,2420.6c0,6.9-13.6,12.6-30.4,12.6s-30.4-5.6-30.4-12.6c0-6.9,13.6-12.6,30.4-12.6
			S1116.4,2413.6,1116.4,2420.6z"/>
		<rect x="1588.4" y="2391.8" class="st7" width="100" height="56.6"/>
		<polygon class="st7" points="1742.9,2473.9 1668.8,2473.9 1668.8,2270.6 1742.9,2258.6 		"/>
		<polygon class="st7" points="1781.4,2466.7 1742.9,2466.7 1742.9,2258.6 1781.4,2278.5 		"/>
		<rect x="1751" y="2403.8" class="st7" width="80.3" height="53.2"/>
		<polygon class="st7" points="1948.4,2462 1820.6,2462 1820.6,2387.2 1894.9,2378.3 1948.4,2378.3 		"/>
		<rect x="1931.6" y="2401.8" class="st7" width="72.3" height="64.9"/>
		<rect x="1988.2" y="2380.4" class="st7" width="43" height="53.9"/>
		<rect x="2031.2" y="2387.2" class="st7" width="16.8" height="46"/>
		<rect x="1938.4" y="2393.8" class="st7" width="24.7" height="23.1"/>
		<path class="st7" d="M1938.4,2383.4c0,5.8-6.5,10.4-14.6,10.4c-8.1,0-14.6-4.7-14.6-10.4s6.5-10.4,14.6-10.4
			C1931.9,2372.9,1938.4,2377.6,1938.4,2383.4z"/>
		<path class="st7" d="M1810.2,2404.5c0,6.9-7.9,12.4-17.7,12.4s-17.7-5.6-17.7-12.4c0-6.9,7.9-12.4,17.7-12.4
			C1802.3,2392.1,1810.2,2397.7,1810.2,2404.5z"/>
	</g>
	<g id="Layer_3">
		
			<linearGradient id="SVGID_3_" gradientUnits="userSpaceOnUse" x1="1332.652" y1="580.9428" x2="1224.8724" y2="1261.4364" gradientTransform="matrix(1 0 0 -1 0 3074)">
			<stop  offset="0" style="stop-color:#FFFFFF;stop-opacity:0"/>
			<stop  offset="4.730000e-02" style="stop-color:#CFCFCF;stop-opacity:9.454477e-03"/>
			<stop  offset="9.790000e-02" style="stop-color:#A4A4A4;stop-opacity:1.960000e-02"/>
			<stop  offset="0.1541" style="stop-color:#7D7D7D;stop-opacity:3.080000e-02"/>
			<stop  offset="0.2147" style="stop-color:#5B5B5B;stop-opacity:4.290000e-02"/>
			<stop  offset="0.2808" style="stop-color:#3F3F3F;stop-opacity:5.620000e-02"/>
			<stop  offset="0.3545" style="stop-color:#272727;stop-opacity:7.090000e-02"/>
			<stop  offset="0.439" style="stop-color:#161616;stop-opacity:8.780000e-02"/>
			<stop  offset="0.5408" style="stop-color:#090909;stop-opacity:0.1082"/>
			<stop  offset="0.6777" style="stop-color:#020202;stop-opacity:0.1355"/>
			<stop  offset="1" style="stop-color:#000000;stop-opacity:0.2"/>
		</linearGradient>
		<polygon class="st12" points="1095.5,2473.9 1453.5,2473.9 1453.5,1777.7 1130,1827.6 1095.5,1870 		"/>
		
			<linearGradient id="SVGID_4_" gradientUnits="userSpaceOnUse" x1="399.7859" y1="591.668" x2="516.9901" y2="1706.7915" gradientTransform="matrix(1 0 0 -1 0 3074)">
			<stop  offset="0" style="stop-color:#FFFFFF;stop-opacity:0"/>
			<stop  offset="2.460000e-02" style="stop-color:#E5E5E5;stop-opacity:2.457488e-03"/>
			<stop  offset="6.920000e-02" style="stop-color:#BDBCBC;stop-opacity:6.916809e-03"/>
			<stop  offset="0.1193" style="stop-color:#989697;stop-opacity:1.190000e-02"/>
			<stop  offset="0.1738" style="stop-color:#787676;stop-opacity:1.740000e-02"/>
			<stop  offset="0.234" style="stop-color:#5D5A5B;stop-opacity:2.340000e-02"/>
			<stop  offset="0.3021" style="stop-color:#484445;stop-opacity:3.020000e-02"/>
			<stop  offset="0.3815" style="stop-color:#373334;stop-opacity:3.810000e-02"/>
			<stop  offset="0.4797" style="stop-color:#2C2829;stop-opacity:4.800000e-02"/>
			<stop  offset="0.6175" style="stop-color:#252122;stop-opacity:6.180000e-02"/>
			<stop  offset="1" style="stop-color:#231F20;stop-opacity:0.1"/>
		</linearGradient>
		<polygon class="st13" points="319.8,2473.9 600,2473.9 600,1375.9 319.8,1347.6 		"/>
		
			<linearGradient id="SVGID_5_" gradientUnits="userSpaceOnUse" x1="413.9123" y1="628.8684" x2="98.6675" y2="1659.9875" gradientTransform="matrix(1 0 0 -1 0 3074)">
			<stop  offset="0" style="stop-color:#FFFFFF;stop-opacity:0"/>
			<stop  offset="2.460000e-02" style="stop-color:#E5E5E5;stop-opacity:4.914975e-03"/>
			<stop  offset="6.920000e-02" style="stop-color:#BDBCBC;stop-opacity:1.380000e-02"/>
			<stop  offset="0.1193" style="stop-color:#989697;stop-opacity:2.390000e-02"/>
			<stop  offset="0.1738" style="stop-color:#787676;stop-opacity:3.480000e-02"/>
			<stop  offset="0.234" style="stop-color:#5D5A5B;stop-opacity:4.680000e-02"/>
			<stop  offset="0.3021" style="stop-color:#484445;stop-opacity:6.040000e-02"/>
			<stop  offset="0.3815" style="stop-color:#373334;stop-opacity:7.630000e-02"/>
			<stop  offset="0.4797" style="stop-color:#2C2829;stop-opacity:9.590000e-02"/>
			<stop  offset="0.6175" style="stop-color:#252122;stop-opacity:0.1235"/>
			<stop  offset="1" style="stop-color:#231F20;stop-opacity:0.2"/>
		</linearGradient>
		<polygon class="st14" points="181.3,2473.9 319.8,2473.9 319.8,1347.6 181.3,1388.7 		"/>
		
			<linearGradient id="SVGID_6_" gradientUnits="userSpaceOnUse" x1="397.3324" y1="727.409" x2="-71.4299" y2="1539.329" gradientTransform="matrix(1 0 0 -1 0 3074)">
			<stop  offset="0" style="stop-color:#FFFFFF;stop-opacity:0"/>
			<stop  offset="2.460000e-02" style="stop-color:#E5E5E5;stop-opacity:7.372463e-03"/>
			<stop  offset="6.920000e-02" style="stop-color:#BDBCBC;stop-opacity:2.080000e-02"/>
			<stop  offset="0.1193" style="stop-color:#989697;stop-opacity:3.580000e-02"/>
			<stop  offset="0.1738" style="stop-color:#787676;stop-opacity:5.210000e-02"/>
			<stop  offset="0.234" style="stop-color:#5D5A5B;stop-opacity:7.020000e-02"/>
			<stop  offset="0.3021" style="stop-color:#484445;stop-opacity:9.060000e-02"/>
			<stop  offset="0.3815" style="stop-color:#373334;stop-opacity:0.1144"/>
			<stop  offset="0.4797" style="stop-color:#2C2829;stop-opacity:0.1439"/>
			<stop  offset="0.6175" style="stop-color:#252122;stop-opacity:0.1853"/>
			<stop  offset="1" style="stop-color:#231F20;stop-opacity:0.3"/>
		</linearGradient>
		<polygon class="st15" points="132.3,2471.3 181.3,2471.3 181.3,1388.7 132.3,1473.2 		"/>
	</g>
	<g id="Layer_4">
	</g>
</g>
</svg>
